<?xml version="1.0" encoding="UTF-8" standalone="no"?>
<!-- Created with Inkscape (http://www.inkscape.org/) -->

<svg
   width="210mm"
   height="297mm"
   viewBox="0 0 210 297"
   version="1.1"
   id="svg5"
   inkscape:version="1.2.2 (b0a8486541, 2022-12-01)"
   sodipodi:docname="logo.svg"
   xml:space="preserve"
   xmlns:inkscape="http://www.inkscape.org/namespaces/inkscape"
   xmlns:sodipodi="http://sodipodi.sourceforge.net/DTD/sodipodi-0.dtd"
   xmlns="http://www.w3.org/2000/svg"
   xmlns:svg="http://www.w3.org/2000/svg"><sodipodi:namedview
     id="namedview7"
     pagecolor="#ffffff"
     bordercolor="#eeeeee"
     borderopacity="1"
     inkscape:pageshadow="0"
     inkscape:pageopacity="0"
     inkscape:pagecheckerboard="0"
     inkscape:document-units="mm"
     showgrid="false"
     inkscape:zoom="0.67024358"
     inkscape:cx="141.73952"
     inkscape:cy="477.43837"
     inkscape:window-width="1920"
     inkscape:window-height="992"
     inkscape:window-x="1911"
     inkscape:window-y="-9"
     inkscape:window-maximized="1"
     inkscape:current-layer="svg5"
     inkscape:showpageshadow="2"
     inkscape:deskcolor="#d1d1d1"><inkscape:page
       x="0"
       y="0"
       width="210"
       height="297"
       id="page560" /><inkscape:page
       x="220"
       y="0"
       width="282.22226"
       height="282.22226"
       id="page562" /></sodipodi:namedview><defs
     id="defs2"><clipPath
       clipPathUnits="userSpaceOnUse"
       id="clipPath474"><path
         d="m 4191.33,4658.4 c -0.28,0 -0.56,0.01 -0.84,0.02 l -82.55,3.58 c -10.64,0.52 -18.99,9.6 -18.53,20.26 l 0.57,12.66 c -1.38,0.4 -2.76,0.82 -4.14,1.25 -0.44,8.78 -6.96,16.41 -16.04,17.99 l -29.52,5.03 c -2.66,21.3 -8.25,42.43 -16.78,62.76 l 25.86,18.94 c 8.63,6.38 10.5,18.46 4.19,27.06 l -48.87,66.65 c -3.77,5.14 -9.65,7.88 -15.62,7.88 -3.98,0 -8,-1.22 -11.46,-3.76 l -27.59,-20.28 c -14.43,11.38 -29.92,20.92 -46.19,28.65 l 5.87,33.67 c 1.8,10.59 -5.3,20.62 -15.83,22.42 l -7.79,1.34 1.1,25.12 c 0.46,10.37 8.98,18.56 19.31,18.56 0.3,0 0.6,0 0.9,-0.02 l 22.42,-1.02 c 6.89,19.35 16.22,37.93 28.1,55.34 l -17.36,18.3 c -7.37,7.76 -7.07,20.04 0.69,27.41 l 59.92,56.85 c 3.75,3.56 8.54,5.32 13.32,5.32 5.14,0 10.28,-2.04 14.1,-6.05 l 20.82,-21.97 c 19.59,9.77 40.18,16.72 61.19,20.83 l 1.43,32.28 c 0.46,10.42 8.97,18.58 19.27,18.58 0.31,0 0.61,-0.01 0.92,-0.02 l 82.53,-3.59 c 10.68,-0.47 18.98,-9.52 18.53,-20.25 l -1.58,-34.15 c 17.11,-5.61 33.67,-13.11 49.43,-22.59 l 24.82,23.59 c 3.76,3.57 8.57,5.33 13.36,5.33 5.13,0 10.23,-2.02 14.01,-6 l 56.9,-59.96 c 7.34,-7.74 7,-19.97 -0.77,-27.38 l -23.26,-22.04 c 11.02,-19.09 19.23,-39.36 24.56,-60.15 l 29.93,-1.27 c 10.69,-0.49 18.97,-9.52 18.44,-20.16 l -3.59,-82.52 c -0.42,-10.43 -9.02,-18.54 -19.32,-18.54 -0.29,0 -0.58,0 -0.88,0.02 l -24.76,1.06 c -5.22,-20.04 -13.11,-39.48 -23.48,-57.88 l 15.08,-15.9 c 7.36,-7.76 7.05,-20 -0.72,-27.38 l -59.93,-56.86 c -3.76,-3.55 -8.55,-5.31 -13.34,-5.31 -5.12,0 -10.23,2.02 -14.03,6.02 l -11.69,12.33 c -22.3,-13.65 -46.4,-23.29 -71.08,-28.91 l -0.7,-14.56 c -0.44,-10.43 -9.04,-18.58 -19.33,-18.58 m -34.16,369.79 c -25.11,0 -50.27,-9.26 -69.94,-27.92 -40.72,-38.65 -42.44,-102.96 -3.77,-143.72 19.97,-21.04 46.81,-31.65 73.71,-31.65 25.12,0 50.31,9.26 69.98,27.91 40.73,38.64 42.39,102.99 3.8,143.67 -20.02,21.08 -46.87,31.71 -73.78,31.71"
         id="path472" /></clipPath></defs><g
     inkscape:label="Layer 1"
     inkscape:groupmode="layer"
     id="layer1" /><path
     d="M 16.707439,246.32686 H 196.20788 V 66.826199 H 16.707439 Z"
     style="fill:#e9e0da;fill-opacity:1;fill-rule:nonzero;stroke:none;stroke-width:0.0224376"
     id="path38"
     inkscape:export-filename="logo.png"
     inkscape:export-xdpi="96"
     inkscape:export-ydpi="96" /><path
     d="M 168.30229,198.11735 H 47.138379 c -1.74093,0 -3.15674,-1.06914 -3.22719,-2.40777 h -0.15505 l 1.41379,-2.33104 124.833801,-0.2154 1.39023,2.32363 -68.19176,0.11937 h 68.33379 c 0,1.38687 -1.44789,2.51121 -3.2337,2.51121 M 59.061019,169.78096 v -53.44692 c 0,-0.72541 0.20037,-1.40325 0.54837,-1.98012 -0.0233,0.16918 -0.0352,0.34195 -0.0352,0.51741 v 53.51671 c 0,0.2145 0.0179,0.42475 0.0523,0.6296 h -0.0862 l -0.47927,0.76332"
     style="fill:#cec9c3;fill-opacity:1;fill-rule:nonzero;stroke:none;stroke-width:0.0224376"
     id="path40" /><path
     d="m 157.35097,168.38804 c 0,2.07704 -1.68371,3.76076 -3.76053,3.76076 H 63.334919 c -2.07704,0 -3.76075,-1.68372 -3.76075,-3.76076 v -53.51671 c 0,-2.07704 1.68371,-3.76075 3.76075,-3.76075 h 90.255521 c 2.07682,0 3.76053,1.68371 3.76053,3.76075 v 53.51671"
     style="fill:#575a5b;fill-opacity:1;fill-rule:evenodd;stroke:none;stroke-width:0.0224376"
     id="path42" /><path
     d="m 59.540289,169.01764 -15.2977,24.36247 127.861971,-0.22056 -14.71971,-24.28932 -97.844561,0.14741"
     style="fill:#b5b7b5;fill-opacity:1;fill-rule:evenodd;stroke:none;stroke-width:0.0224376"
     id="path44" /><path
     d="m 172.24681,193.27735 v 0 c 0,1.37206 -1.45058,2.48429 -3.23975,2.48429 H 47.630659 c -1.78917,0 -3.23976,-1.11223 -3.23976,-2.48429"
     style="fill:#575a5b;fill-opacity:1;fill-rule:evenodd;stroke:none;stroke-width:0.0224376"
     id="path46" /><path
     d="M 65.025369,164.42265 H 151.95003 V 116.01857 H 65.025369 Z"
     style="fill:#53bab7;fill-opacity:1;fill-rule:evenodd;stroke:none;stroke-width:0.0224376"
     id="path48" /><path
     d="m 65.935659,176.15615 h -2.99093 l 1.35412,-3.03737 h 2.89287 l -1.25606,3.03737"
     style="fill:#969998;fill-opacity:1;fill-rule:nonzero;stroke:none;stroke-width:0.0224376"
     id="path50" /><path
     d="m 68.244039,179.98915 h -7.00837 l 1.35433,-3.03737 h 6.78758 l -1.13354,3.03737"
     style="fill:#969998;fill-opacity:1;fill-rule:nonzero;stroke:none;stroke-width:0.0224376"
     id="path52" /><path
     d="m 66.841469,184.18363 h -7.31353 l 1.3494,-3.03737 h 7.09252 l -1.12839,3.03737"
     style="fill:#969998;fill-opacity:1;fill-rule:nonzero;stroke:none;stroke-width:0.0224376"
     id="path54" /><path
     d="m 69.524779,176.15615 h -2.99093 l 1.23653,-3.03737 h 2.89288 l -1.13848,3.03737"
     style="fill:#969998;fill-opacity:1;fill-rule:nonzero;stroke:none;stroke-width:0.0224376"
     id="path56" /><path
     d="m 73.113889,176.15615 h -2.99093 l 1.11874,-3.03737 h 2.89287 l -1.02068,3.03737"
     style="fill:#969998;fill-opacity:1;fill-rule:nonzero;stroke:none;stroke-width:0.0224376"
     id="path58" /><path
     d="m 76.703219,176.15615 h -2.99092 l 1.00094,-3.03737 h 2.89264 l -0.90266,3.03737"
     style="fill:#969998;fill-opacity:1;fill-rule:nonzero;stroke:none;stroke-width:0.0224376"
     id="path60" /><path
     d="m 80.292329,176.15615 h -2.99092 l 0.88314,-3.03737 h 2.89265 l -0.78487,3.03737"
     style="fill:#969998;fill-opacity:1;fill-rule:nonzero;stroke:none;stroke-width:0.0224376"
     id="path62" /><path
     d="m 83.881439,176.15615 h -2.99092 l 0.76534,-3.03737 h 2.89265 l -0.66707,3.03737"
     style="fill:#969998;fill-opacity:1;fill-rule:nonzero;stroke:none;stroke-width:0.0224376"
     id="path64" /><path
     d="m 87.470559,176.15615 h -2.99093 l 0.64755,-3.03737 h 2.89287 l -0.54949,3.03737"
     style="fill:#969998;fill-opacity:1;fill-rule:nonzero;stroke:none;stroke-width:0.0224376"
     id="path66" /><path
     d="m 91.059669,176.15615 h -2.99093 l 0.52975,-3.03737 h 2.89288 l -0.4317,3.03737"
     style="fill:#969998;fill-opacity:1;fill-rule:nonzero;stroke:none;stroke-width:0.0224376"
     id="path68" /><path
     d="m 94.648999,176.15615 h -2.99115 l 0.41196,-3.03737 h 2.89287 l -0.31368,3.03737"
     style="fill:#969998;fill-opacity:1;fill-rule:nonzero;stroke:none;stroke-width:0.0224376"
     id="path70" /><path
     d="m 98.238112,176.15615 h -2.990923 l 0.29415,-3.03737 h 2.892878 l -0.196105,3.03737"
     style="fill:#969998;fill-opacity:1;fill-rule:nonzero;stroke:none;stroke-width:0.0224376"
     id="path72" /><path
     d="M 101.82722,176.15615 H 98.8363 l 0.176357,-3.03737 h 2.892873 l -0.0783,3.03737"
     style="fill:#969998;fill-opacity:1;fill-rule:nonzero;stroke:none;stroke-width:0.0224376"
     id="path74" /><path
     d="m 105.41656,176.15615 h -2.99093 l 0.0586,-3.03737 h 2.89265 l 0.0397,3.03737"
     style="fill:#969998;fill-opacity:1;fill-rule:nonzero;stroke:none;stroke-width:0.0224376"
     id="path76" /><path
     d="m 109.00544,176.15615 h -2.99069 l -0.0592,-3.03737 h 2.89264 l 0.15729,3.03737"
     style="fill:#969998;fill-opacity:1;fill-rule:nonzero;stroke:none;stroke-width:0.0224376"
     id="path78" /><path
     d="m 112.595,176.15615 h -2.99137 l -0.17703,-3.03737 h 2.89309 l 0.27531,3.03737"
     style="fill:#969998;fill-opacity:1;fill-rule:nonzero;stroke:none;stroke-width:0.0224376"
     id="path80" /><path
     d="m 116.18411,176.15615 h -2.99092 l -0.29506,-3.03737 h 2.89288 l 0.3931,3.03737"
     style="fill:#969998;fill-opacity:1;fill-rule:nonzero;stroke:none;stroke-width:0.0224376"
     id="path82" /><path
     d="m 119.77323,176.15615 h -2.99093 l -0.41263,-3.03737 h 2.89265 l 0.51091,3.03737"
     style="fill:#969998;fill-opacity:1;fill-rule:nonzero;stroke:none;stroke-width:0.0224376"
     id="path84" /><path
     d="m 123.36234,176.15615 h -2.99093 l -0.53065,-3.03737 h 2.89288 l 0.6287,3.03737"
     style="fill:#969998;fill-opacity:1;fill-rule:nonzero;stroke:none;stroke-width:0.0224376"
     id="path86" /><path
     d="m 126.95145,176.15615 h -2.99092 l -0.64823,-3.03737 h 2.89288 l 0.74627,3.03737"
     style="fill:#969998;fill-opacity:1;fill-rule:nonzero;stroke:none;stroke-width:0.0224376"
     id="path88" /><path
     d="m 130.54056,176.15615 h -2.99093 l -0.76601,-3.03737 h 2.89287 l 0.86407,3.03737"
     style="fill:#969998;fill-opacity:1;fill-rule:nonzero;stroke:none;stroke-width:0.0224376"
     id="path90" /><path
     d="m 134.1299,176.15615 h -2.99093 l -0.88381,-3.03737 h 2.89265 l 0.98209,3.03737"
     style="fill:#969998;fill-opacity:1;fill-rule:nonzero;stroke:none;stroke-width:0.0224376"
     id="path92" /><path
     d="m 137.71901,176.15615 h -2.99115 l -1.00161,-3.03737 h 2.89309 l 1.09967,3.03737"
     style="fill:#969998;fill-opacity:1;fill-rule:nonzero;stroke:none;stroke-width:0.0224376"
     id="path94" /><path
     d="m 141.30812,176.15615 h -2.99093 l -1.11941,-3.03737 h 2.89288 l 1.21746,3.03737"
     style="fill:#969998;fill-opacity:1;fill-rule:nonzero;stroke:none;stroke-width:0.0224376"
     id="path96" /><path
     d="m 144.89723,176.15615 h -2.99093 l -1.23698,-3.03737 h 2.89265 l 1.33526,3.03737"
     style="fill:#969998;fill-opacity:1;fill-rule:nonzero;stroke:none;stroke-width:0.0224376"
     id="path98" /><path
     d="m 148.48657,176.15615 h -2.99115 l -1.35501,-3.03737 h 2.89288 l 1.45328,3.03737"
     style="fill:#969998;fill-opacity:1;fill-rule:nonzero;stroke:none;stroke-width:0.0224376"
     id="path100" /><path
     d="m 152.07545,176.15615 h -2.9907 l -1.4728,-3.03737 h 2.89287 l 1.57063,3.03737"
     style="fill:#969998;fill-opacity:1;fill-rule:nonzero;stroke:none;stroke-width:0.0224376"
     id="path102" /><path
     d="m 61.000969,188.08889 h -3.37685 l 1.35433,-3.03737 h 3.27858 l -1.25606,3.03737"
     style="fill:#969998;fill-opacity:1;fill-rule:nonzero;stroke:none;stroke-width:0.0224376"
     id="path104" /><path
     d="m 65.052739,188.08889 h -3.37662 l 1.23653,-3.03737 h 3.27858 l -1.13849,3.03737"
     style="fill:#969998;fill-opacity:1;fill-rule:nonzero;stroke:none;stroke-width:0.0224376"
     id="path106" /><path
     d="m 69.104749,188.08889 h -3.37664 l 1.11874,-3.03737 h 3.27835 l -1.02045,3.03737"
     style="fill:#969998;fill-opacity:1;fill-rule:nonzero;stroke:none;stroke-width:0.0224376"
     id="path108" /><path
     d="m 73.156739,188.08889 h -3.37662 l 1.00093,-3.03737 h 3.27836 l -0.90267,3.03737"
     style="fill:#969998;fill-opacity:1;fill-rule:nonzero;stroke:none;stroke-width:0.0224376"
     id="path110" /><path
     d="m 77.208509,188.08889 h -3.37662 l 0.88314,-3.03737 h 3.27857 l -0.78509,3.03737"
     style="fill:#969998;fill-opacity:1;fill-rule:nonzero;stroke:none;stroke-width:0.0224376"
     id="path112" /><path
     d="m 81.260519,188.08889 h -3.37664 l 0.76535,-3.03737 h 3.27835 l -0.66706,3.03737"
     style="fill:#969998;fill-opacity:1;fill-rule:nonzero;stroke:none;stroke-width:0.0224376"
     id="path114" /><path
     d="M 133.76686,188.08889 H 82.104619 l 0.6426,-3.03737 H 132.9075 l 0.85936,3.03737"
     style="fill:#969998;fill-opacity:1;fill-rule:nonzero;stroke:none;stroke-width:0.0224376"
     id="path116" /><path
     d="m 137.98759,188.08889 h -3.37641 l -0.88404,-3.03737 h 3.27835 l 0.9821,3.03737"
     style="fill:#969998;fill-opacity:1;fill-rule:nonzero;stroke:none;stroke-width:0.0224376"
     id="path118" /><path
     d="m 142.03958,188.08889 h -3.37685 l -1.00161,-3.03737 h 3.2788 l 1.09966,3.03737"
     style="fill:#969998;fill-opacity:1;fill-rule:nonzero;stroke:none;stroke-width:0.0224376"
     id="path120" /><path
     d="m 146.09158,188.08889 h -3.37663 l -1.11963,-3.03737 h 3.27858 l 1.21768,3.03737"
     style="fill:#969998;fill-opacity:1;fill-rule:nonzero;stroke:none;stroke-width:0.0224376"
     id="path122" /><path
     d="m 150.14358,188.08889 h -3.37663 l -1.2372,-3.03737 h 3.27835 l 1.33548,3.03737"
     style="fill:#969998;fill-opacity:1;fill-rule:nonzero;stroke:none;stroke-width:0.0224376"
     id="path124" /><path
     d="m 154.19535,188.08889 h -3.37662 l -1.35501,-3.03737 h 3.27835 l 1.45328,3.03737"
     style="fill:#969998;fill-opacity:1;fill-rule:nonzero;stroke:none;stroke-width:0.0224376"
     id="path126" /><path
     d="m 158.24735,188.08889 h -3.3764 l -1.47303,-3.03737 h 3.27835 l 1.57108,3.03737"
     style="fill:#969998;fill-opacity:1;fill-rule:nonzero;stroke:none;stroke-width:0.0224376"
     id="path128" /><path
     d="m 71.826199,179.98915 h -3.11478 l 1.11873,-3.03737 h 3.0165 l -1.02045,3.03737"
     style="fill:#969998;fill-opacity:1;fill-rule:nonzero;stroke:none;stroke-width:0.0224376"
     id="path130" /><path
     d="m 75.564059,179.98915 h -3.11478 l 1.00072,-3.03737 h 3.01673 l -0.90267,3.03737"
     style="fill:#969998;fill-opacity:1;fill-rule:nonzero;stroke:none;stroke-width:0.0224376"
     id="path132" /><path
     d="m 79.301719,179.98915 h -3.11479 l 0.88315,-3.03737 h 3.01673 l -0.78509,3.03737"
     style="fill:#969998;fill-opacity:1;fill-rule:nonzero;stroke:none;stroke-width:0.0224376"
     id="path134" /><path
     d="m 83.039589,179.98915 h -3.11478 l 0.76534,-3.03737 h 3.01673 l -0.66729,3.03737"
     style="fill:#969998;fill-opacity:1;fill-rule:nonzero;stroke:none;stroke-width:0.0224376"
     id="path136" /><path
     d="m 86.777459,179.98915 h -3.11501 l 0.64755,-3.03737 h 3.01673 l -0.54927,3.03737"
     style="fill:#969998;fill-opacity:1;fill-rule:nonzero;stroke:none;stroke-width:0.0224376"
     id="path138" /><path
     d="m 90.515109,179.98915 h -3.11478 l 0.52975,-3.03737 h 3.01672 l -0.43169,3.03737"
     style="fill:#969998;fill-opacity:1;fill-rule:nonzero;stroke:none;stroke-width:0.0224376"
     id="path140" /><path
     d="m 94.252979,179.98915 h -3.11478 l 0.41195,-3.03737 h 3.01673 l -0.3139,3.03737"
     style="fill:#969998;fill-opacity:1;fill-rule:nonzero;stroke:none;stroke-width:0.0224376"
     id="path142" /><path
     d="m 97.99085,179.98915 h -3.115001 l 0.29415,-3.03737 h 3.016957 l -0.196106,3.03737"
     style="fill:#969998;fill-opacity:1;fill-rule:nonzero;stroke:none;stroke-width:0.0224376"
     id="path144" /><path
     d="m 101.72873,179.98915 h -3.114791 l 0.176363,-3.03737 h 3.016498 l -0.0781,3.03737"
     style="fill:#969998;fill-opacity:1;fill-rule:nonzero;stroke:none;stroke-width:0.0224376"
     id="path146" /><path
     d="m 105.46637,179.98915 h -3.11478 l 0.0586,-3.03737 h 3.01673 l 0.0395,3.03737"
     style="fill:#969998;fill-opacity:1;fill-rule:nonzero;stroke:none;stroke-width:0.0224376"
     id="path148" /><path
     d="m 109.20424,179.98915 h -3.11478 l -0.0592,-3.03737 h 3.01673 l 0.15728,3.03737"
     style="fill:#969998;fill-opacity:1;fill-rule:nonzero;stroke:none;stroke-width:0.0224376"
     id="path150" /><path
     d="m 112.94212,179.98915 h -3.11479 l -0.17703,-3.03737 h 3.01673 l 0.27509,3.03737"
     style="fill:#969998;fill-opacity:1;fill-rule:nonzero;stroke:none;stroke-width:0.0224376"
     id="path152" /><path
     d="m 116.67976,179.98915 h -3.11456 l -0.29505,-3.03737 h 3.01673 l 0.39288,3.03737"
     style="fill:#969998;fill-opacity:1;fill-rule:nonzero;stroke:none;stroke-width:0.0224376"
     id="path154" /><path
     d="m 120.41786,179.98915 h -3.11478 l -0.41285,-3.03737 h 3.01672 l 0.51091,3.03737"
     style="fill:#969998;fill-opacity:1;fill-rule:nonzero;stroke:none;stroke-width:0.0224376"
     id="path156" /><path
     d="m 124.15551,179.98915 h -3.11479 l -0.53042,-3.03737 h 3.01651 l 0.6287,3.03737"
     style="fill:#969998;fill-opacity:1;fill-rule:nonzero;stroke:none;stroke-width:0.0224376"
     id="path158" /><path
     d="m 127.89338,179.98915 h -3.11478 l -0.64822,-3.03737 h 3.01673 l 0.74627,3.03737"
     style="fill:#969998;fill-opacity:1;fill-rule:nonzero;stroke:none;stroke-width:0.0224376"
     id="path160" /><path
     d="m 131.63103,179.98915 h -3.11478 l -0.76603,-3.03737 h 3.01673 l 0.86408,3.03737"
     style="fill:#969998;fill-opacity:1;fill-rule:nonzero;stroke:none;stroke-width:0.0224376"
     id="path162" /><path
     d="m 135.36912,179.98915 h -3.11478 l -0.88404,-3.03737 h 3.01673 l 0.98209,3.03737"
     style="fill:#969998;fill-opacity:1;fill-rule:nonzero;stroke:none;stroke-width:0.0224376"
     id="path164" /><path
     d="m 139.10699,179.98915 h -3.115 l -1.00184,-3.03737 h 3.01696 l 1.09988,3.03737"
     style="fill:#969998;fill-opacity:1;fill-rule:nonzero;stroke:none;stroke-width:0.0224376"
     id="path166" /><path
     d="m 142.84464,179.98915 h -3.11478 l -1.11941,-3.03737 h 3.01651 l 1.21768,3.03737"
     style="fill:#969998;fill-opacity:1;fill-rule:nonzero;stroke:none;stroke-width:0.0224376"
     id="path168" /><path
     d="m 146.58251,179.98915 h -3.11478 l -1.2372,-3.03737 h 3.01673 l 1.33525,3.03737"
     style="fill:#969998;fill-opacity:1;fill-rule:nonzero;stroke:none;stroke-width:0.0224376"
     id="path170" /><path
     d="m 150.32016,179.98915 h -3.11478 l -1.355,-3.03737 h 3.01673 l 1.45305,3.03737"
     style="fill:#969998;fill-opacity:1;fill-rule:nonzero;stroke:none;stroke-width:0.0224376"
     id="path172" /><path
     d="m 156.11533,183.96666 h -3.24334 l -3.40154,-7.01488 h 3.01673 l 3.62815,7.01488"
     style="fill:#969998;fill-opacity:1;fill-rule:nonzero;stroke:none;stroke-width:0.0224376"
     id="path174" /><path
     d="m 70.416889,184.18363 h -3.2503 l 1.11851,-3.03737 h 3.15225 l -1.02046,3.03737"
     style="fill:#969998;fill-opacity:1;fill-rule:nonzero;stroke:none;stroke-width:0.0224376"
     id="path176" /><path
     d="m 74.317209,184.18363 h -3.25008 l 1.00072,-3.03737 h 3.15225 l -0.90289,3.03737"
     style="fill:#969998;fill-opacity:1;fill-rule:nonzero;stroke:none;stroke-width:0.0224376"
     id="path178" /><path
     d="m 78.217759,184.18363 h -3.25031 l 0.88314,-3.03737 h 3.15226 l -0.78509,3.03737"
     style="fill:#969998;fill-opacity:1;fill-rule:nonzero;stroke:none;stroke-width:0.0224376"
     id="path180" /><path
     d="m 82.118299,184.18363 h -3.2503 l 0.76512,-3.03737 h 3.15225 l -0.66707,3.03737"
     style="fill:#969998;fill-opacity:1;fill-rule:nonzero;stroke:none;stroke-width:0.0224376"
     id="path182" /><path
     d="m 86.018839,184.18363 h -3.25052 l 0.64755,-3.03737 h 3.15224 l -0.54927,3.03737"
     style="fill:#969998;fill-opacity:1;fill-rule:nonzero;stroke:none;stroke-width:0.0224376"
     id="path184" /><path
     d="m 89.919159,184.18363 h -3.2503 l 0.52975,-3.03737 h 3.15203 l -0.43148,3.03737"
     style="fill:#969998;fill-opacity:1;fill-rule:nonzero;stroke:none;stroke-width:0.0224376"
     id="path186" /><path
     d="m 93.819709,184.18363 h -3.2503 l 0.41173,-3.03737 h 3.15247 l -0.3139,3.03737"
     style="fill:#969998;fill-opacity:1;fill-rule:nonzero;stroke:none;stroke-width:0.0224376"
     id="path188" /><path
     d="m 97.720254,184.18363 h -3.250525 l 0.29415,-3.03737 h 3.15248 l -0.196105,3.03737"
     style="fill:#969998;fill-opacity:1;fill-rule:nonzero;stroke:none;stroke-width:0.0224376"
     id="path190" /><path
     d="m 101.6208,184.18363 h -3.250306 l 0.176134,-3.03737 h 3.152252 l -0.0781,3.03737"
     style="fill:#969998;fill-opacity:1;fill-rule:nonzero;stroke:none;stroke-width:0.0224376"
     id="path192" /><path
     d="m 105.52112,184.18363 h -3.2503 l 0.0586,-3.03737 h 3.15225 l 0.0395,3.03737"
     style="fill:#969998;fill-opacity:1;fill-rule:nonzero;stroke:none;stroke-width:0.0224376"
     id="path194" /><path
     d="m 109.42166,184.18363 h -3.2503 l -0.0592,-3.03737 h 3.15226 l 0.15728,3.03737"
     style="fill:#969998;fill-opacity:1;fill-rule:nonzero;stroke:none;stroke-width:0.0224376"
     id="path196" /><path
     d="m 113.32243,184.18363 h -3.25075 l -0.17726,-3.03737 h 3.1527 l 0.27531,3.03737"
     style="fill:#969998;fill-opacity:1;fill-rule:nonzero;stroke:none;stroke-width:0.0224376"
     id="path198" /><path
     d="m 117.22275,184.18363 h -3.25053 l -0.29483,-3.03737 h 3.15226 l 0.3931,3.03737"
     style="fill:#969998;fill-opacity:1;fill-rule:nonzero;stroke:none;stroke-width:0.0224376"
     id="path200" /><path
     d="m 121.12307,184.18363 h -3.2503 l -0.41263,-3.03737 h 3.15225 l 0.51068,3.03737"
     style="fill:#969998;fill-opacity:1;fill-rule:nonzero;stroke:none;stroke-width:0.0224376"
     id="path202" /><path
     d="m 125.02362,184.18363 h -3.25031 l -0.53042,-3.03737 h 3.15203 l 0.6287,3.03737"
     style="fill:#969998;fill-opacity:1;fill-rule:nonzero;stroke:none;stroke-width:0.0224376"
     id="path204" /><path
     d="m 128.92416,184.18363 h -3.25053 l -0.648,-3.03737 h 3.15226 l 0.74627,3.03737"
     style="fill:#969998;fill-opacity:1;fill-rule:nonzero;stroke:none;stroke-width:0.0224376"
     id="path206" /><path
     d="m 132.82448,184.18363 h -3.25053 l -0.76602,-3.03737 h 3.15225 l 0.8643,3.03737"
     style="fill:#969998;fill-opacity:1;fill-rule:nonzero;stroke:none;stroke-width:0.0224376"
     id="path208" /><path
     d="m 136.72502,184.18363 h -3.2503 l -0.88382,-3.03737 h 3.15203 l 0.98209,3.03737"
     style="fill:#969998;fill-opacity:1;fill-rule:nonzero;stroke:none;stroke-width:0.0224376"
     id="path210" /><path
     d="m 140.62557,184.18363 h -3.25053 l -1.00161,-3.03737 h 3.15247 l 1.09967,3.03737"
     style="fill:#969998;fill-opacity:1;fill-rule:nonzero;stroke:none;stroke-width:0.0224376"
     id="path212" /><path
     d="m 144.52611,184.18363 h -3.2503 l -1.11941,-3.03737 h 3.15203 l 1.21768,3.03737"
     style="fill:#969998;fill-opacity:1;fill-rule:nonzero;stroke:none;stroke-width:0.0224376"
     id="path214" /><path
     d="m 148.42666,184.18363 h -3.25053 l -1.23698,-3.03737 h 3.15225 l 1.33526,3.03737"
     style="fill:#969998;fill-opacity:1;fill-rule:nonzero;stroke:none;stroke-width:0.0224376"
     id="path216" /><path
     d="m 152.32698,184.18363 h -3.25053 l -1.355,-3.03737 h 3.15225 l 1.45328,3.03737"
     style="fill:#969998;fill-opacity:1;fill-rule:nonzero;stroke:none;stroke-width:0.0224376"
     id="path218" /><path
     d="m 65.935659,175.93177 h -2.99093 l 1.35412,-3.03737 h 2.89309 l -1.25628,3.03737"
     style="fill:#626466;fill-opacity:1;fill-rule:nonzero;stroke:none;stroke-width:0.0224376"
     id="path220" /><path
     d="m 68.244039,179.76478 h -7.00837 l 1.35433,-3.03737 h 6.78758 l -1.13354,3.03737"
     style="fill:#626466;fill-opacity:1;fill-rule:nonzero;stroke:none;stroke-width:0.0224376"
     id="path222" /><path
     d="m 66.841469,183.95925 h -7.31353 l 1.3494,-3.03737 h 7.09252 l -1.12839,3.03737"
     style="fill:#626466;fill-opacity:1;fill-rule:nonzero;stroke:none;stroke-width:0.0224376"
     id="path224" /><path
     d="m 69.524779,175.93177 h -2.99093 l 1.23653,-3.03737 h 2.89288 l -1.13848,3.03737"
     style="fill:#626466;fill-opacity:1;fill-rule:nonzero;stroke:none;stroke-width:0.0224376"
     id="path226" /><path
     d="m 73.114109,175.93177 h -2.99115 l 1.11874,-3.03737 h 2.89287 l -1.02046,3.03737"
     style="fill:#626466;fill-opacity:1;fill-rule:nonzero;stroke:none;stroke-width:0.0224376"
     id="path228" /><path
     d="m 76.703219,175.93177 h -2.99092 l 1.00094,-3.03737 h 2.89264 l -0.90266,3.03737"
     style="fill:#626466;fill-opacity:1;fill-rule:nonzero;stroke:none;stroke-width:0.0224376"
     id="path230" /><path
     d="m 80.292329,175.93177 h -2.99092 l 0.88314,-3.03737 h 2.89265 l -0.78487,3.03737"
     style="fill:#626466;fill-opacity:1;fill-rule:nonzero;stroke:none;stroke-width:0.0224376"
     id="path232" /><path
     d="m 83.881439,175.93177 h -2.99092 l 0.76534,-3.03737 h 2.89265 l -0.66707,3.03737"
     style="fill:#626466;fill-opacity:1;fill-rule:nonzero;stroke:none;stroke-width:0.0224376"
     id="path234" /><path
     d="m 87.470559,175.93177 h -2.99093 l 0.64755,-3.03737 h 2.89287 l -0.54949,3.03737"
     style="fill:#626466;fill-opacity:1;fill-rule:nonzero;stroke:none;stroke-width:0.0224376"
     id="path236" /><path
     d="m 91.059889,175.93177 h -2.99115 l 0.52975,-3.03737 h 2.89288 l -0.43148,3.03737"
     style="fill:#626466;fill-opacity:1;fill-rule:nonzero;stroke:none;stroke-width:0.0224376"
     id="path238" /><path
     d="m 94.648999,175.93177 h -2.99092 l 0.41173,-3.03737 h 2.89309 l -0.3139,3.03737"
     style="fill:#626466;fill-opacity:1;fill-rule:nonzero;stroke:none;stroke-width:0.0224376"
     id="path240" /><path
     d="m 98.238112,175.93177 h -2.990923 l 0.29415,-3.03737 h 2.892878 l -0.196105,3.03737"
     style="fill:#626466;fill-opacity:1;fill-rule:nonzero;stroke:none;stroke-width:0.0224376"
     id="path242" /><path
     d="M 101.82722,175.93177 H 98.8363 l 0.176357,-3.03737 h 2.892873 l -0.0783,3.03737"
     style="fill:#626466;fill-opacity:1;fill-rule:nonzero;stroke:none;stroke-width:0.0224376"
     id="path244" /><path
     d="m 105.41656,175.93177 h -2.99093 l 0.0586,-3.03737 h 2.89265 l 0.0397,3.03737"
     style="fill:#626466;fill-opacity:1;fill-rule:nonzero;stroke:none;stroke-width:0.0224376"
     id="path246" /><path
     d="m 109.00544,175.93177 h -2.99069 l -0.0592,-3.03737 h 2.89264 l 0.15729,3.03737"
     style="fill:#626466;fill-opacity:1;fill-rule:nonzero;stroke:none;stroke-width:0.0224376"
     id="path248" /><path
     d="m 112.595,175.93177 h -2.99137 l -0.17703,-3.03737 h 2.89309 l 0.27531,3.03737"
     style="fill:#626466;fill-opacity:1;fill-rule:nonzero;stroke:none;stroke-width:0.0224376"
     id="path250" /><path
     d="m 116.18411,175.93177 h -2.99092 l -0.29506,-3.03737 h 2.89288 l 0.3931,3.03737"
     style="fill:#626466;fill-opacity:1;fill-rule:nonzero;stroke:none;stroke-width:0.0224376"
     id="path252" /><path
     d="m 119.77323,175.93177 h -2.99093 l -0.41263,-3.03737 h 2.89265 l 0.51091,3.03737"
     style="fill:#626466;fill-opacity:1;fill-rule:nonzero;stroke:none;stroke-width:0.0224376"
     id="path254" /><path
     d="m 123.36234,175.93177 h -2.99093 l -0.53065,-3.03737 h 2.89288 l 0.6287,3.03737"
     style="fill:#626466;fill-opacity:1;fill-rule:nonzero;stroke:none;stroke-width:0.0224376"
     id="path256" /><path
     d="m 126.95145,175.93177 h -2.99092 l -0.64823,-3.03737 h 2.89288 l 0.74627,3.03737"
     style="fill:#626466;fill-opacity:1;fill-rule:nonzero;stroke:none;stroke-width:0.0224376"
     id="path258" /><path
     d="m 130.54056,175.93177 h -2.99093 l -0.76601,-3.03737 h 2.89265 l 0.86429,3.03737"
     style="fill:#626466;fill-opacity:1;fill-rule:nonzero;stroke:none;stroke-width:0.0224376"
     id="path260" /><path
     d="m 134.1299,175.93177 h -2.99093 l -0.88381,-3.03737 h 2.89265 l 0.98209,3.03737"
     style="fill:#626466;fill-opacity:1;fill-rule:nonzero;stroke:none;stroke-width:0.0224376"
     id="path262" /><path
     d="m 137.71901,175.93177 h -2.99115 l -1.00161,-3.03737 h 2.89309 l 1.09967,3.03737"
     style="fill:#626466;fill-opacity:1;fill-rule:nonzero;stroke:none;stroke-width:0.0224376"
     id="path264" /><path
     d="m 141.30812,175.93177 h -2.99093 l -1.11941,-3.03737 h 2.89288 l 1.21746,3.03737"
     style="fill:#626466;fill-opacity:1;fill-rule:nonzero;stroke:none;stroke-width:0.0224376"
     id="path266" /><path
     d="m 144.89723,175.93177 h -2.99093 l -1.23698,-3.03737 h 2.89265 l 1.33526,3.03737"
     style="fill:#626466;fill-opacity:1;fill-rule:nonzero;stroke:none;stroke-width:0.0224376"
     id="path268" /><path
     d="m 148.48634,175.93177 h -2.99092 l -1.35501,-3.03737 h 2.89288 l 1.45305,3.03737"
     style="fill:#626466;fill-opacity:1;fill-rule:nonzero;stroke:none;stroke-width:0.0224376"
     id="path270" /><path
     d="m 152.07568,175.93177 h -2.99115 l -1.47258,-3.03737 h 2.89287 l 1.57086,3.03737"
     style="fill:#626466;fill-opacity:1;fill-rule:nonzero;stroke:none;stroke-width:0.0224376"
     id="path272" /><path
     d="m 61.000969,187.86451 h -3.37685 l 1.35433,-3.03737 h 3.27858 l -1.25606,3.03737"
     style="fill:#626466;fill-opacity:1;fill-rule:nonzero;stroke:none;stroke-width:0.0224376"
     id="path274" /><path
     d="m 65.052739,187.86451 h -3.37662 l 1.23653,-3.03737 h 3.27858 l -1.13849,3.03737"
     style="fill:#626466;fill-opacity:1;fill-rule:nonzero;stroke:none;stroke-width:0.0224376"
     id="path276" /><path
     d="m 69.104749,187.86451 h -3.37664 l 1.11874,-3.03737 h 3.27835 l -1.02045,3.03737"
     style="fill:#626466;fill-opacity:1;fill-rule:nonzero;stroke:none;stroke-width:0.0224376"
     id="path278" /><path
     d="m 73.156519,187.86451 h -3.3764 l 1.00093,-3.03737 h 3.27836 l -0.90289,3.03737"
     style="fill:#626466;fill-opacity:1;fill-rule:nonzero;stroke:none;stroke-width:0.0224376"
     id="path280" /><path
     d="m 77.208509,187.86451 h -3.37662 l 0.88314,-3.03737 h 3.27857 l -0.78509,3.03737"
     style="fill:#626466;fill-opacity:1;fill-rule:nonzero;stroke:none;stroke-width:0.0224376"
     id="path282" /><path
     d="m 81.260519,187.86451 h -3.37664 l 0.76535,-3.03737 h 3.27835 l -0.66706,3.03737"
     style="fill:#626466;fill-opacity:1;fill-rule:nonzero;stroke:none;stroke-width:0.0224376"
     id="path284" /><path
     d="M 133.76686,187.86451 H 82.104619 l 0.6426,-3.03737 H 132.9075 l 0.85936,3.03737"
     style="fill:#626466;fill-opacity:1;fill-rule:nonzero;stroke:none;stroke-width:0.0224376"
     id="path286" /><path
     d="m 137.98759,187.86451 h -3.37641 l -0.88404,-3.03737 h 3.27835 l 0.9821,3.03737"
     style="fill:#626466;fill-opacity:1;fill-rule:nonzero;stroke:none;stroke-width:0.0224376"
     id="path288" /><path
     d="m 142.03958,187.86451 h -3.37685 l -1.00161,-3.03737 h 3.2788 l 1.09966,3.03737"
     style="fill:#626466;fill-opacity:1;fill-rule:nonzero;stroke:none;stroke-width:0.0224376"
     id="path290" /><path
     d="m 146.09158,187.86451 h -3.37663 l -1.11941,-3.03737 h 3.27836 l 1.21768,3.03737"
     style="fill:#626466;fill-opacity:1;fill-rule:nonzero;stroke:none;stroke-width:0.0224376"
     id="path292" /><path
     d="m 150.14358,187.86451 h -3.37663 l -1.2372,-3.03737 h 3.27835 l 1.33548,3.03737"
     style="fill:#626466;fill-opacity:1;fill-rule:nonzero;stroke:none;stroke-width:0.0224376"
     id="path294" /><path
     d="m 154.19535,187.86451 h -3.37662 l -1.35501,-3.03737 h 3.27835 l 1.45328,3.03737"
     style="fill:#626466;fill-opacity:1;fill-rule:nonzero;stroke:none;stroke-width:0.0224376"
     id="path296" /><path
     d="m 158.24735,187.86451 h -3.3764 l -1.47303,-3.03737 h 3.27835 l 1.57108,3.03737"
     style="fill:#626466;fill-opacity:1;fill-rule:nonzero;stroke:none;stroke-width:0.0224376"
     id="path298" /><path
     d="m 71.826199,179.76478 h -3.11478 l 1.11873,-3.03737 h 3.0165 l -1.02045,3.03737"
     style="fill:#626466;fill-opacity:1;fill-rule:nonzero;stroke:none;stroke-width:0.0224376"
     id="path300" /><path
     d="m 75.564059,179.76478 h -3.11478 l 1.00072,-3.03737 h 3.01673 l -0.90267,3.03737"
     style="fill:#626466;fill-opacity:1;fill-rule:nonzero;stroke:none;stroke-width:0.0224376"
     id="path302" /><path
     d="m 79.301719,179.76478 h -3.11479 l 0.88315,-3.03737 h 3.01673 l -0.78509,3.03737"
     style="fill:#626466;fill-opacity:1;fill-rule:nonzero;stroke:none;stroke-width:0.0224376"
     id="path304" /><path
     d="m 83.039589,179.76478 h -3.11478 l 0.76534,-3.03737 h 3.01673 l -0.66729,3.03737"
     style="fill:#626466;fill-opacity:1;fill-rule:nonzero;stroke:none;stroke-width:0.0224376"
     id="path306" /><path
     d="m 86.777459,179.76478 h -3.11501 l 0.64755,-3.03737 h 3.01673 l -0.54927,3.03737"
     style="fill:#626466;fill-opacity:1;fill-rule:nonzero;stroke:none;stroke-width:0.0224376"
     id="path308" /><path
     d="m 90.515109,179.76478 h -3.11478 l 0.52975,-3.03737 h 3.01672 l -0.43169,3.03737"
     style="fill:#626466;fill-opacity:1;fill-rule:nonzero;stroke:none;stroke-width:0.0224376"
     id="path310" /><path
     d="m 94.252979,179.76478 h -3.11478 l 0.41195,-3.03737 h 3.01673 l -0.3139,3.03737"
     style="fill:#626466;fill-opacity:1;fill-rule:nonzero;stroke:none;stroke-width:0.0224376"
     id="path312" /><path
     d="m 97.99085,179.76478 h -3.115001 l 0.29415,-3.03737 h 3.016957 l -0.196106,3.03737"
     style="fill:#626466;fill-opacity:1;fill-rule:nonzero;stroke:none;stroke-width:0.0224376"
     id="path314" /><path
     d="m 101.72873,179.76478 h -3.114791 l 0.176363,-3.03737 h 3.016498 l -0.0781,3.03737"
     style="fill:#626466;fill-opacity:1;fill-rule:nonzero;stroke:none;stroke-width:0.0224376"
     id="path316" /><path
     d="m 105.46659,179.76478 h -3.115 l 0.0586,-3.03737 h 3.01673 l 0.0397,3.03737"
     style="fill:#626466;fill-opacity:1;fill-rule:nonzero;stroke:none;stroke-width:0.0224376"
     id="path318" /><path
     d="m 109.20424,179.76478 h -3.11478 l -0.0592,-3.03737 h 3.01673 l 0.15728,3.03737"
     style="fill:#626466;fill-opacity:1;fill-rule:nonzero;stroke:none;stroke-width:0.0224376"
     id="path320" /><path
     d="m 112.94212,179.76478 h -3.11479 l -0.17703,-3.03737 h 3.01673 l 0.27509,3.03737"
     style="fill:#626466;fill-opacity:1;fill-rule:nonzero;stroke:none;stroke-width:0.0224376"
     id="path322" /><path
     d="m 116.67998,179.76478 h -3.11478 l -0.29505,-3.03737 h 3.01673 l 0.3931,3.03737"
     style="fill:#626466;fill-opacity:1;fill-rule:nonzero;stroke:none;stroke-width:0.0224376"
     id="path324" /><path
     d="m 120.41786,179.76478 h -3.11478 l -0.41285,-3.03737 h 3.01672 l 0.51091,3.03737"
     style="fill:#626466;fill-opacity:1;fill-rule:nonzero;stroke:none;stroke-width:0.0224376"
     id="path326" /><path
     d="m 124.15551,179.76478 h -3.11479 l -0.53042,-3.03737 h 3.01651 l 0.6287,3.03737"
     style="fill:#626466;fill-opacity:1;fill-rule:nonzero;stroke:none;stroke-width:0.0224376"
     id="path328" /><path
     d="m 127.89338,179.76478 h -3.11478 l -0.64822,-3.03737 h 3.01673 l 0.74627,3.03737"
     style="fill:#626466;fill-opacity:1;fill-rule:nonzero;stroke:none;stroke-width:0.0224376"
     id="path330" /><path
     d="m 131.63103,179.76478 h -3.11456 l -0.76625,-3.03737 h 3.01673 l 0.86408,3.03737"
     style="fill:#626466;fill-opacity:1;fill-rule:nonzero;stroke:none;stroke-width:0.0224376"
     id="path332" /><path
     d="m 135.36912,179.76478 h -3.11478 l -0.88404,-3.03737 h 3.01673 l 0.98209,3.03737"
     style="fill:#626466;fill-opacity:1;fill-rule:nonzero;stroke:none;stroke-width:0.0224376"
     id="path334" /><path
     d="m 139.10699,179.76478 h -3.115 l -1.00184,-3.03737 h 3.01696 l 1.09988,3.03737"
     style="fill:#626466;fill-opacity:1;fill-rule:nonzero;stroke:none;stroke-width:0.0224376"
     id="path336" /><path
     d="m 142.84464,179.76478 h -3.11478 l -1.11941,-3.03737 h 3.01651 l 1.21768,3.03737"
     style="fill:#626466;fill-opacity:1;fill-rule:nonzero;stroke:none;stroke-width:0.0224376"
     id="path338" /><path
     d="m 146.58251,179.76478 h -3.11478 l -1.2372,-3.03737 h 3.01673 l 1.33525,3.03737"
     style="fill:#626466;fill-opacity:1;fill-rule:nonzero;stroke:none;stroke-width:0.0224376"
     id="path340" /><path
     d="m 150.32016,179.76478 h -3.11478 l -1.355,-3.03737 h 3.01673 l 1.45305,3.03737"
     style="fill:#626466;fill-opacity:1;fill-rule:nonzero;stroke:none;stroke-width:0.0224376"
     id="path342" /><path
     d="m 156.11533,183.74229 h -3.24334 l -3.40154,-7.01488 h 3.01673 l 3.62815,7.01488"
     style="fill:#626466;fill-opacity:1;fill-rule:nonzero;stroke:none;stroke-width:0.0224376"
     id="path344" /><path
     d="m 70.416889,183.95925 h -3.2503 l 1.11873,-3.03737 h 3.15203 l -1.02046,3.03737"
     style="fill:#626466;fill-opacity:1;fill-rule:nonzero;stroke:none;stroke-width:0.0224376"
     id="path346" /><path
     d="m 74.317209,183.95925 h -3.25008 l 1.00072,-3.03737 h 3.15225 l -0.90289,3.03737"
     style="fill:#626466;fill-opacity:1;fill-rule:nonzero;stroke:none;stroke-width:0.0224376"
     id="path348" /><path
     d="m 78.217759,183.95925 h -3.25031 l 0.88314,-3.03737 h 3.15226 l -0.78509,3.03737"
     style="fill:#626466;fill-opacity:1;fill-rule:nonzero;stroke:none;stroke-width:0.0224376"
     id="path350" /><path
     d="m 82.118299,183.95925 h -3.2503 l 0.76512,-3.03737 h 3.15225 l -0.66707,3.03737"
     style="fill:#626466;fill-opacity:1;fill-rule:nonzero;stroke:none;stroke-width:0.0224376"
     id="path352" /><path
     d="m 86.018839,183.95925 h -3.25052 l 0.64755,-3.03737 h 3.15224 l -0.54927,3.03737"
     style="fill:#626466;fill-opacity:1;fill-rule:nonzero;stroke:none;stroke-width:0.0224376"
     id="path354" /><path
     d="m 89.919159,183.95925 h -3.2503 l 0.52975,-3.03737 h 3.15203 l -0.43148,3.03737"
     style="fill:#626466;fill-opacity:1;fill-rule:nonzero;stroke:none;stroke-width:0.0224376"
     id="path356" /><path
     d="m 93.819709,183.95925 h -3.25053 l 0.41196,-3.03737 h 3.15247 l -0.3139,3.03737"
     style="fill:#626466;fill-opacity:1;fill-rule:nonzero;stroke:none;stroke-width:0.0224376"
     id="path358" /><path
     d="m 97.720254,183.95925 h -3.250525 l 0.29415,-3.03737 h 3.15248 l -0.196105,3.03737"
     style="fill:#626466;fill-opacity:1;fill-rule:nonzero;stroke:none;stroke-width:0.0224376"
     id="path360" /><path
     d="m 101.6208,183.95925 h -3.250306 l 0.176134,-3.03737 h 3.152252 l -0.0781,3.03737"
     style="fill:#626466;fill-opacity:1;fill-rule:nonzero;stroke:none;stroke-width:0.0224376"
     id="path362" /><path
     d="m 105.52112,183.95925 h -3.2503 l 0.0586,-3.03737 h 3.15225 l 0.0395,3.03737"
     style="fill:#626466;fill-opacity:1;fill-rule:nonzero;stroke:none;stroke-width:0.0224376"
     id="path364" /><path
     d="m 109.42166,183.95925 h -3.2503 l -0.0595,-3.03737 h 3.15248 l 0.15728,3.03737"
     style="fill:#626466;fill-opacity:1;fill-rule:nonzero;stroke:none;stroke-width:0.0224376"
     id="path366" /><path
     d="m 113.32243,183.95925 h -3.25098 l -0.17703,-3.03737 h 3.1527 l 0.27531,3.03737"
     style="fill:#626466;fill-opacity:1;fill-rule:nonzero;stroke:none;stroke-width:0.0224376"
     id="path368" /><path
     d="m 117.22275,183.95925 h -3.25053 l -0.29483,-3.03737 h 3.15226 l 0.3931,3.03737"
     style="fill:#626466;fill-opacity:1;fill-rule:nonzero;stroke:none;stroke-width:0.0224376"
     id="path370" /><path
     d="m 121.12307,183.95925 h -3.2503 l -0.41263,-3.03737 h 3.15225 l 0.51068,3.03737"
     style="fill:#626466;fill-opacity:1;fill-rule:nonzero;stroke:none;stroke-width:0.0224376"
     id="path372" /><path
     d="m 125.02362,183.95925 h -3.25031 l -0.53042,-3.03737 h 3.15203 l 0.6287,3.03737"
     style="fill:#626466;fill-opacity:1;fill-rule:nonzero;stroke:none;stroke-width:0.0224376"
     id="path374" /><path
     d="m 128.92416,183.95925 h -3.2503 l -0.64823,-3.03737 h 3.15226 l 0.74627,3.03737"
     style="fill:#626466;fill-opacity:1;fill-rule:nonzero;stroke:none;stroke-width:0.0224376"
     id="path376" /><path
     d="m 132.82448,183.95925 h -3.25053 l -0.76602,-3.03737 h 3.15225 l 0.8643,3.03737"
     style="fill:#626466;fill-opacity:1;fill-rule:nonzero;stroke:none;stroke-width:0.0224376"
     id="path378" /><path
     d="m 136.72502,183.95925 h -3.2503 l -0.88382,-3.03737 h 3.15226 l 0.98186,3.03737"
     style="fill:#626466;fill-opacity:1;fill-rule:nonzero;stroke:none;stroke-width:0.0224376"
     id="path380" /><path
     d="m 140.62557,183.95925 h -3.25053 l -1.00161,-3.03737 h 3.15247 l 1.09967,3.03737"
     style="fill:#626466;fill-opacity:1;fill-rule:nonzero;stroke:none;stroke-width:0.0224376"
     id="path382" /><path
     d="m 144.52611,183.95925 h -3.2503 l -1.11964,-3.03737 h 3.15226 l 1.21768,3.03737"
     style="fill:#626466;fill-opacity:1;fill-rule:nonzero;stroke:none;stroke-width:0.0224376"
     id="path384" /><path
     d="m 148.42666,183.95925 h -3.25031 l -1.2372,-3.03737 h 3.15225 l 1.33526,3.03737"
     style="fill:#626466;fill-opacity:1;fill-rule:nonzero;stroke:none;stroke-width:0.0224376"
     id="path386" /><path
     d="m 152.32698,183.95925 h -3.25053 l -1.355,-3.03737 h 3.15225 l 1.45328,3.03737"
     style="fill:#626466;fill-opacity:1;fill-rule:nonzero;stroke:none;stroke-width:0.0224376"
     id="path388" /><path
     d="m 125.58837,123.09582 c 0,0 0.0536,0.035 0.15773,0.10321 0.10367,0.0687 0.25961,0.16514 0.45571,0.31098 0.39311,0.28743 0.96953,0.71285 1.6274,1.35254 0.32826,0.31974 0.68367,0.68524 1.04761,1.10707 0.36595,0.42048 0.72428,0.90715 1.08687,1.4443 0.3599,0.53873 0.71374,1.13467 1.04649,1.78738 0.33028,0.65383 0.61928,1.37093 0.8809,2.13471 0.26049,0.76445 0.48039,1.58028 0.64755,2.43919 0.16491,0.85936 0.25735,1.76179 0.30043,2.6925 0.0381,0.93071 0.0182,1.89149 -0.0745,2.86775 -0.0884,0.97715 -0.278,1.96351 -0.5183,2.95323 -0.49766,1.97315 -1.24641,3.96561 -2.32049,5.81402 -0.53244,0.9251 -1.11896,1.82911 -1.76629,2.69093 -0.64889,0.86317 -1.33144,1.69471 -2.09522,2.4724 -1.54931,1.57624 -3.32233,2.87739 -5.17859,3.92882 -1.8585,1.05344 -3.82784,1.79275 -5.7678,2.33148 -1.94286,0.54142 -3.88999,0.79249 -5.74288,0.82795 -1.85312,0.0464 -3.62547,-0.19028 -5.20327,-0.68054 -0.78621,-0.25264 -1.53249,-0.54972 -2.18968,-0.9509 -0.65697,-0.39714 -1.24192,-0.8533 -1.70795,-1.36981 -0.466478,-0.51359 -0.825476,-1.06825 -1.050527,-1.62067 -0.230432,-0.55016 -0.344414,-1.08328 -0.391982,-1.55896 -0.04757,-0.47635 -0.0395,-0.89929 0.01164,-1.25852 0.0166,-0.1804 0.04802,-0.34419 0.07584,-0.49363 0.02398,-0.14988 0.05788,-0.28316 0.08796,-0.4023 0.05406,-0.23896 0.114205,-0.41622 0.151006,-0.53648 0.03702,-0.11959 0.05629,-0.1813 0.05629,-0.1813 l 0.175237,0.0391 c 0,0 -0.01189,0.0617 -0.03454,0.18175 -0.02245,0.11982 -0.06125,0.29707 -0.08728,0.53155 -0.05673,0.46512 -0.122733,1.16607 0.04128,2.02835 0.08167,0.42923 0.226393,0.89638 0.470741,1.36286 0.243225,0.46647 0.586065,0.92936 1.026965,1.34984 0.88404,0.84365 2.16096,1.47662 3.62726,1.83876 1.46921,0.36439 3.12689,0.4833 4.86177,0.37493 1.73666,-0.10411 3.55388,-0.43956 5.37199,-0.98591 1.81677,-0.55062 3.63556,-1.31888 5.35876,-2.3187 1.72119,-0.99914 3.35218,-2.22715 4.7516,-3.68244 1.40796,-1.45149 2.64427,-3.0717 3.65307,-4.78841 1.00609,-1.71849 1.77705,-3.5375 2.28526,-5.36459 0.51,-1.82709 0.75031,-3.66114 0.7548,-5.39937 0.002,-1.73869 -0.22999,-3.38089 -0.63207,-4.8436 -0.39602,-1.46561 -0.95584,-2.75084 -1.55919,-3.82515 -0.60267,-1.077 -1.24954,-1.94287 -1.82484,-2.61555 -0.57754,-0.67133 -1.08194,-1.15508 -1.43286,-1.47258 -0.17322,-0.1602 -0.31435,-0.27777 -0.40792,-0.35787 -0.0938,-0.0801 -0.14225,-0.12161 -0.14225,-0.12161 l 0.11622,-0.13665"
     style="fill:#eaeae8;fill-opacity:1;fill-rule:nonzero;stroke:none;stroke-width:0.0224376"
     id="path390" /><path
     d="m 116.76682,109.49776 8.67167,0.30717 0.7521,1.44745 -6.02538,3.41185"
     style="fill:#ee483e;fill-opacity:1;fill-rule:evenodd;stroke:none;stroke-width:0.0224376"
     id="path392" /><path
     d="m 111.73587,113.97742 -0.69623,8.649 1.35074,0.91456 4.08498,-5.59121"
     style="fill:#ee483e;fill-opacity:1;fill-rule:evenodd;stroke:none;stroke-width:0.0224376"
     id="path394" /><path
     d="m 107.1797,100.08768 -1.87802,1.65521 -1.87848,1.65545 c 0,0 -0.28809,2.84104 4.00175,7.70932 4.2896,4.86827 9.78142,8.47309 9.78142,8.47309 l 2.14683,-1.89149 2.14637,-1.89148 c 0,0 -2.88502,-5.90197 -7.17463,-10.77025 -4.28983,-4.86805 -7.14524,-4.93985 -7.14524,-4.93985"
     style="fill:#af9790;fill-opacity:1;fill-rule:nonzero;stroke:none;stroke-width:0.0224376"
     id="path396" /><path
     d="m 110.54803,107.68301 c 0.78621,-0.69264 0.8625,-1.89619 0.16917,-2.6833 -0.69286,-0.78667 -1.89686,-0.86205 -2.6833,-0.16963 -0.78599,0.69309 -0.86228,1.89732 -0.1694,2.68353 0.69354,0.78689 1.89732,0.8625 2.68353,0.1694"
     style="fill:#9ddbd1;fill-opacity:1;fill-rule:nonzero;stroke:none;stroke-width:0.0224376"
     id="path398" /><path
     d="m 108.22888,105.05109 c 0.66438,-0.5854 1.68214,-0.52145 2.26754,0.14337 0.58562,0.66506 0.52167,1.68237 -0.14293,2.26777 -0.66482,0.58584 -1.68191,0.5219 -2.26821,-0.14338 -0.5854,-0.66437 -0.521,-1.68192 0.1436,-2.26776 z m 2.59693,2.94717 c 0.96167,-0.84769 1.05411,-2.31398 0.20665,-3.2761 -0.84748,-0.96168 -2.31399,-1.05457 -3.27589,-0.20688 -0.9619,0.84747 -1.05434,2.31398 -0.20665,3.27544 0.84769,0.96234 2.31421,1.05456 3.27589,0.20754"
     style="fill:#896766;fill-opacity:1;fill-rule:nonzero;stroke:none;stroke-width:0.0224376"
     id="path400" /><path
     d="m 113.71172,111.22837 c 0.37965,-0.33454 0.41644,-0.91567 0.0819,-1.29577 -0.33476,-0.37986 -0.91612,-0.41644 -1.29576,-0.0819 -0.37942,0.33454 -0.41667,0.91612 -0.0817,1.29576 0.33454,0.3801 0.9159,0.41645 1.29554,0.0819"
     style="fill:#9ddbd1;fill-opacity:1;fill-rule:nonzero;stroke:none;stroke-width:0.0224376"
     id="path402" /><path
     d="m 112.59186,109.95751 c 0.32086,-0.28271 0.81224,-0.25198 1.09518,0.0691 0.28249,0.3213 0.25175,0.81223 -0.0693,1.09495 -0.32086,0.28293 -0.81179,0.25197 -1.09518,-0.0691 -0.28271,-0.32086 -0.25152,-0.81224 0.0693,-1.09495 z m 1.25404,1.42299 c 0.46423,-0.40926 0.50888,-1.11762 0.0996,-1.58185 -0.40903,-0.46446 -1.11717,-0.50933 -1.58185,-0.10007 -0.46423,0.40926 -0.50911,1.11761 -0.0999,1.58185 0.40949,0.46446 1.11762,0.5091 1.58208,0.10007"
     style="fill:#896766;fill-opacity:1;fill-rule:nonzero;stroke:none;stroke-width:0.0224376"
     id="path404" /><path
     d="m 116.50071,114.36043 c 0.37964,-0.33454 0.41644,-0.91545 0.0817,-1.29554 -0.33432,-0.38009 -0.9159,-0.41667 -1.29555,-0.0821 -0.37987,0.33477 -0.41666,0.91613 -0.0821,1.29578 0.33522,0.38008 0.91635,0.41666 1.29599,0.0819"
     style="fill:#9ddbd1;fill-opacity:1;fill-rule:nonzero;stroke:none;stroke-width:0.0224376"
     id="path406" /><path
     d="m 115.38085,113.08934 c 0.32086,-0.28248 0.81247,-0.25174 1.09496,0.0693 0.28271,0.32131 0.25197,0.81225 -0.0689,1.09496 -0.3213,0.28293 -0.81224,0.25197 -1.0954,-0.0691 -0.28294,-0.32086 -0.25153,-0.81224 0.0693,-1.09518 z m 1.25381,1.42321 c 0.46469,-0.40925 0.50934,-1.11738 0.10007,-1.58184 -0.40926,-0.46446 -1.11761,-0.50934 -1.58207,-0.10007 -0.46423,0.40926 -0.50911,1.11761 -0.0996,1.58184 0.40927,0.46446 1.1174,0.50912 1.58163,0.10007"
     style="fill:#896766;fill-opacity:1;fill-rule:nonzero;stroke:none;stroke-width:0.0224376"
     id="path408" /><path
     d="m 118.05922,119.32361 3.39278,-2.79033 c 0,0 2.20809,1.46472 3.22226,4.28445 0,0 -0.545,-0.17074 -1.26211,-0.3323 0,0 0.69668,0.93946 0.75099,2.50381 0,0 -3.02122,1.09338 -6.10392,-3.66563"
     style="fill:#f7a031;fill-opacity:1;fill-rule:evenodd;stroke:none;stroke-width:0.0224376"
     id="path410" /><path
     d="m 118.39108,119.04651 2.66535,-2.19215 c 0,0 1.71737,0.9195 2.51458,3.13475 0,0 -0.5836,-0.10994 -1.02562,-0.30245 0,0 0.59841,1.01081 0.64149,2.23994 0,0 -2.3739,0.85936 -4.7958,-2.88009"
     style="fill:#ead659;fill-opacity:1;fill-rule:evenodd;stroke:none;stroke-width:0.0224376"
     id="path412" /><path
     d="m 121.99993,115.57542 c 0.12229,0.13777 0.11039,0.34913 -0.0276,0.47209 l -4.66072,4.15028 c -0.138,0.12295 -0.34958,0.11038 -0.47209,-0.0273 -0.12273,-0.13777 -0.11084,-0.34913 0.0274,-0.47209 l 4.66073,-4.15028 c 0.13776,-0.12273 0.34935,-0.11061 0.47231,0.0274"
     style="fill:#d7352e;fill-opacity:1;fill-rule:nonzero;stroke:none;stroke-width:0.0224376"
     id="path414" /><path
     d="m 103.22351,103.93819 -1.70839,-6.496121 6.22933,2.51211 z"
     style="fill:#ee483e;fill-opacity:1;fill-rule:nonzero;stroke:none;stroke-width:0.0224376"
     id="path416" /><path
     d="m 108.08753,99.980419 c 0.09,0.102321 0.0797,0.258041 -0.022,0.348011 l -4.51108,3.97504 c -0.10209,0.0898 -0.2578,0.0803 -0.34778,-0.022 -0.09,-0.10209 -0.0801,-0.25803 0.0217,-0.34801 l 4.51107,-3.974811 c 0.10187,-0.0895 0.25803,-0.0801 0.34801,0.0217"
     style="fill:#d7352e;fill-opacity:1;fill-rule:nonzero;stroke:none;stroke-width:0.0224376"
     id="path418" /><path
     d="m 115.34764,151.18158 -0.49676,-0.16851 -0.31031,0.42273 -0.10277,-0.51427 -0.52077,-0.0574 0.39377,-0.34576 -0.21069,-0.48017 0.49655,0.16829 0.31009,-0.4225 0.10299,0.51404 0.521,0.0577 -0.39423,0.34576 0.21113,0.48016"
     style="fill:#f2ce68;fill-opacity:1;fill-rule:evenodd;stroke:none;stroke-width:0.0224376"
     id="path420" /><path
     d="m 109.69967,152.53995 -0.69108,-0.23448 -0.43148,0.5881 -0.14292,-0.71531 -0.72541,-0.0801 0.54837,-0.48128 -0.29325,-0.66819 0.69085,0.23425 0.43169,-0.58787 0.14316,0.71531 0.72495,0.0805 -0.54837,0.48084 0.29349,0.66819"
     style="fill:#f2ce68;fill-opacity:1;fill-rule:evenodd;stroke:none;stroke-width:0.0224376"
     id="path422" /><path
     d="m 111.43296,146.52085 -0.34195,-0.116 -0.21315,0.29101 -0.0711,-0.35383 -0.359,-0.0397 0.27194,-0.23806 -0.14584,-0.33073 0.3424,0.116 0.21315,-0.29079 0.0711,0.35384 0.35856,0.0397 -0.27105,0.23784 0.14494,0.33073"
     style="fill:#f2ce68;fill-opacity:1;fill-rule:evenodd;stroke:none;stroke-width:0.0224376"
     id="path424" /><path
     d="m 123.78843,127.2084 -0.13037,0.50799 0.44494,0.27732 -0.50484,0.14136 -0.0179,0.52392 -0.37449,-0.36663 -0.46311,0.24658 0.13036,-0.50821 -0.44471,-0.2771 0.50485,-0.14158 0.0182,-0.52369 0.37448,0.36685 0.46267,-0.24681"
     style="fill:#f2ce68;fill-opacity:1;fill-rule:evenodd;stroke:none;stroke-width:0.0224376"
     id="path426" /><path
     d="m 125.5702,132.73724 -0.18152,0.707 0.61904,0.3857 -0.70251,0.19678 -0.0251,0.72922 -0.52122,-0.51023 -0.64418,0.34285 0.18129,-0.70656 -0.61883,-0.38593 0.70253,-0.197 0.0254,-0.72899 0.52122,0.51067 0.64396,-0.34351"
     style="fill:#f2ce68;fill-opacity:1;fill-rule:evenodd;stroke:none;stroke-width:0.0224376"
     id="path428" /><path
     d="m 119.43711,131.46435 -0.0898,0.34958 0.3065,0.19049 -0.34756,0.0978 -0.0123,0.36102 -0.25803,-0.25333 -0.31861,0.17075 0.0895,-0.35025 -0.30605,-0.19071 0.34756,-0.0976 0.0123,-0.3608 0.25781,0.25243 0.31861,-0.16941"
     style="fill:#f2ce68;fill-opacity:1;fill-rule:evenodd;stroke:none;stroke-width:0.0224376"
     id="path430" /><path
     d="m 98.725682,132.27412 -0.424744,-0.30739 -0.420928,0.31211 0.05362,-0.52168 -0.480835,-0.20889 0.47859,-0.21405 -0.05947,-0.52123 0.424744,0.30785 0.42115,-0.31166 -0.05362,0.52144 0.480613,0.20912 -0.478597,0.21361 0.05947,0.52077"
     style="fill:#f2ce68;fill-opacity:1;fill-rule:evenodd;stroke:none;stroke-width:0.0224376"
     id="path432" /><path
     d="m 92.928489,131.90166 -0.59055,-0.42766 -0.58653,0.43372 0.0752,-0.72518 -0.66886,-0.29124 0.66617,-0.2973 -0.083,-0.72541 0.59123,0.42811 0.58607,-0.43394 -0.0749,0.72563 0.66908,0.29124 -0.66639,0.2973 0.0826,0.72473"
     style="fill:#f2ce68;fill-opacity:1;fill-rule:evenodd;stroke:none;stroke-width:0.0224376"
     id="path434" /><path
     d="m 96.364349,126.66451 -0.29191,-0.21136 -0.29012,0.21473 0.0366,-0.35923 -0.33073,-0.14382 0.32961,-0.14719 -0.0411,-0.35901 0.29258,0.21204 0.2899,-0.21495 -0.0375,0.35878 0.331174,0.1445 -0.329604,0.14696 0.041,0.35855"
     style="fill:#f2ce68;fill-opacity:1;fill-rule:evenodd;stroke:none;stroke-width:0.0224376"
     id="path436" /><path
     d="m 108.92669,125.92519 c 0,0 -0.0207,-0.26296 -0.0516,-0.65742 -0.0323,-0.39445 -0.0577,-0.92038 -0.0891,-1.44632 -0.0135,-0.26297 -0.0449,-0.52616 -0.0487,-0.77253 6.4e-4,-0.24659 0.0216,-0.47679 0.0487,-0.67402 0.0505,-0.39445 0.14068,-0.65742 0.14068,-0.65742 h 0.0404 c 0,0 0.0902,0.26297 0.14069,0.65742 0.0272,0.19723 0.0476,0.42743 0.0485,0.67402 -0.004,0.24637 -0.0352,0.50956 -0.0485,0.77253 -0.0314,0.52594 -0.0567,1.05187 -0.0893,1.44632 -0.031,0.39446 -0.0514,0.65742 -0.0514,0.65742 h -0.0404"
     style="fill:#f4711f;fill-opacity:1;fill-rule:nonzero;stroke:none;stroke-width:0.0224376"
     id="path438" /><path
     d="m 115.21077,128.50686 c 0,0 0.15348,-0.17389 0.38975,-0.42856 0.2329,-0.25826 0.55555,-0.58943 0.87416,-0.92487 0.16043,-0.16627 0.30919,-0.34554 0.46603,-0.49475 0.15976,-0.14607 0.3222,-0.26746 0.46827,-0.36461 0.289,-0.19723 0.51988,-0.28721 0.51988,-0.28721 l 0.0272,0.0296 c 0,0 -0.10859,0.22281 -0.32938,0.4943 -0.10905,0.1371 -0.24367,0.289 -0.40253,0.43619 -0.16155,0.1436 -0.35294,0.27688 -0.532,0.42317 -0.36079,0.28944 -0.71777,0.58315 -0.99443,0.79361 -0.27351,0.21429 -0.45974,0.35273 -0.45974,0.35273 l -0.0272,-0.0296"
     style="fill:#f4711f;fill-opacity:1;fill-rule:nonzero;stroke:none;stroke-width:0.0224376"
     id="path440" /><path
     d="m 103.2639,128.53648 c 0,0 -0.18601,-0.13844 -0.45952,-0.35272 -0.27688,-0.21046 -0.63387,-0.50417 -0.99488,-0.79362 -0.17905,-0.14629 -0.37022,-0.27957 -0.532,-0.42317 -0.15863,-0.14719 -0.29348,-0.29909 -0.4023,-0.43619 -0.22079,-0.27149 -0.32961,-0.4943 -0.32961,-0.4943 l 0.0272,-0.0296 c 0,0 0.23111,0.09 0.5201,0.2872 0.14585,0.0971 0.30852,0.21854 0.46828,0.36461 0.15661,0.14921 0.30537,0.32848 0.46603,0.49475 0.31861,0.33544 0.64126,0.66662 0.87416,0.92487 0.23627,0.25467 0.38975,0.42856 0.38975,0.42856 l -0.0272,0.0296"
     style="fill:#f4711f;fill-opacity:1;fill-rule:nonzero;stroke:none;stroke-width:0.0224376"
     id="path442" /><path
     d="m 105.43855,126.16528 c 0,0 -0.32534,-0.5661 -0.61233,-1.14724 -0.0729,-0.14494 -0.16222,-0.28338 -0.22213,-0.4225 -0.0558,-0.1409 -0.0893,-0.27979 -0.10927,-0.40252 -0.0435,-0.2439 -0.02,-0.42744 -0.02,-0.42744 l 0.0373,-0.0148 c 0,0 0.14406,0.11623 0.28137,0.32244 0.0702,0.10231 0.14204,0.22594 0.19925,0.36617 0.0532,0.14203 0.0842,0.30381 0.13193,0.45863 0.19454,0.6186 0.35138,1.25224 0.35115,1.25246 l -0.0373,0.0148"
     style="fill:#dbdcd9;fill-opacity:1;fill-rule:nonzero;stroke:none;stroke-width:0.0224376"
     id="path444" /><path
     d="m 112.78775,126.15047 c 0,0 0.15638,-0.63387 0.35069,-1.25246 0.0478,-0.15483 0.079,-0.3166 0.13171,-0.45863 0.0572,-0.14024 0.12924,-0.26387 0.19947,-0.36618 0.1371,-0.2062 0.28114,-0.32243 0.28114,-0.32243 l 0.0373,0.0148 c 0,0 0.0235,0.18354 -0.0197,0.42743 -0.02,0.12251 -0.0534,0.26163 -0.10904,0.40253 -0.0601,0.13911 -0.14944,0.27733 -0.22214,0.4225 -0.28698,0.58114 -0.61209,1.14746 -0.61209,1.14746 l -0.0373,-0.015"
     style="fill:#dbdcd9;fill-opacity:1;fill-rule:nonzero;stroke:none;stroke-width:0.0224376"
     id="path446" /><path
     d="m 93.738259,143.56941 c 0,0 -0.24277,0.10322 -0.60693,0.25804 -0.36349,0.15616 -0.8542,0.34778 -1.34266,0.54478 -0.24525,0.0965 -0.48443,0.20979 -0.71689,0.29191 -0.23402,0.0776 -0.45885,0.13149 -0.6545,0.16829 -0.38997,0.0776 -0.66797,0.0758 -0.66797,0.0758 l -0.0128,-0.0382 c 0,0 0.22056,-0.16917 0.57844,-0.34262 0.17838,-0.0884 0.38997,-0.18129 0.62332,-0.26049 0.23492,-0.0749 0.4943,-0.1288 0.74806,-0.1997 0.50844,-0.13777 1.01508,-0.28092 1.39943,-0.37561 0.38391,-0.0963 0.6397,-0.16042 0.6397,-0.16042 l 0.0128,0.0382"
     style="fill:#f4711f;fill-opacity:1;fill-rule:nonzero;stroke:none;stroke-width:0.0224376"
     id="path448" /><path
     d="m 94.186339,136.79058 c 0,0 -0.21405,-0.0902 -0.53043,-0.23335 -0.31906,-0.13844 -0.7355,-0.33881 -1.15508,-0.53401 -0.20867,-0.0996 -0.42609,-0.18332 -0.61748,-0.28451 -0.18915,-0.10501 -0.35608,-0.22056 -0.49452,-0.32781 -0.27891,-0.21114 -0.43754,-0.40163 -0.43754,-0.40163 l 0.0193,-0.0352 c 0,0 0.24569,0.0323 0.57328,0.15504 0.16491,0.0597 0.35159,0.13889 0.54164,0.24277 0.1878,0.10748 0.3747,0.24637 0.57036,0.36955 0.38929,0.24996 0.7815,0.49498 1.06915,0.69041 0.28989,0.19116 0.48061,0.32355 0.48061,0.32355 l -0.0193,0.0352"
     style="fill:#f4711f;fill-opacity:1;fill-rule:nonzero;stroke:none;stroke-width:0.0224376"
     id="path450" /><path
     d="m 98.015757,148.10696 c 0,0 -0.07202,0.22056 -0.188028,0.54793 -0.111292,0.32938 -0.276429,0.7613 -0.435963,1.19547 -0.0819,0.2163 -0.147189,0.44 -0.231781,0.63902 -0.08885,0.19722 -0.190044,0.37336 -0.285403,0.52033 -0.187131,0.29572 -0.363943,0.46962 -0.363943,0.46962 l -0.0366,-0.0164 c 0,0 0.0116,-0.24771 0.10658,-0.58427 0.04579,-0.16918 0.109269,-0.36192 0.19678,-0.56004 0.09154,-0.19589 0.214277,-0.39401 0.320633,-0.59931 0.216745,-0.40881 0.428108,-0.81987 0.598856,-1.12278 0.166263,-0.30493 0.282268,-0.50597 0.282268,-0.50597 l 0.03657,0.0164"
     style="fill:#f4711f;fill-opacity:1;fill-rule:nonzero;stroke:none;stroke-width:0.0224376"
     id="path452" /><path
     d="m 95.075989,146.79975 c 0,0 -0.43327,0.48846 -0.89301,0.94574 -0.11422,0.11511 -0.21676,0.2439 -0.32961,0.34487 -0.11601,0.0978 -0.23695,0.17389 -0.34689,0.23178 -0.2172,0.11869 -0.39894,0.15482 -0.39894,0.15482 l -0.026,-0.0305 c 0,0 0.0644,-0.17367 0.2163,-0.36932 0.0747,-0.0992 0.16895,-0.20665 0.28383,-0.30561 0.11757,-0.0954 0.26095,-0.17613 0.39288,-0.27082 0.52437,-0.38143 1.07543,-0.73146 1.07543,-0.73146 l 0.026,0.0305"
     style="fill:#dbdcd9;fill-opacity:1;fill-rule:nonzero;stroke:none;stroke-width:0.0224376"
     id="path454" /><path
     d="m 92.723189,139.83738 c 0,0 -0.65069,0.0534 -1.29892,0.0657 -0.16221,0.004 -0.32534,0.0263 -0.47657,0.0213 -0.15123,-0.01 -0.29124,-0.0383 -0.41083,-0.0725 -0.23896,-0.0644 -0.39512,-0.16402 -0.39512,-0.16402 l 0.003,-0.0399 c 0,0 0.16672,-0.081 0.41151,-0.11735 0.12251,-0.02 0.26499,-0.0325 0.41622,-0.0244 0.151,0.0125 0.31053,0.0532 0.47119,0.0758 0.64238,0.0871 1.28252,0.21517 1.28252,0.21517 l -0.003,0.0402"
     style="fill:#dbdcd9;fill-opacity:1;fill-rule:nonzero;stroke:none;stroke-width:0.0224376"
     id="path456" /><path
     d="m 124.81808,143.33359 c 0,0 0.2199,0.0303 0.54928,0.0756 0.33005,0.0442 0.76669,0.1178 1.20445,0.18646 0.21854,0.0352 0.43955,0.0592 0.64328,0.0987 0.20239,0.0451 0.38772,0.10322 0.54478,0.1611 0.31503,0.11286 0.51495,0.23358 0.51472,0.23358 l -0.007,0.033 c -2.2e-4,0 -0.23222,0.0263 -0.56542,-0.003 -0.16694,-0.013 -0.35967,-0.0375 -0.56229,-0.081 -0.20149,-0.0489 -0.4124,-0.11937 -0.62578,-0.1786 -0.42654,-0.12004 -0.8542,-0.23537 -1.17236,-0.33297 -0.31839,-0.0963 -0.53065,-0.16043 -0.53065,-0.16043 l 0.007,-0.033"
     style="fill:#f4711f;fill-opacity:1;fill-rule:nonzero;stroke:none;stroke-width:0.0224376"
     id="path458" /><path
     d="m 121.5698,148.03202 c 0,0 0.11264,0.15886 0.28182,0.39715 0.17052,0.23783 0.38458,0.56228 0.60312,0.88403 0.10748,0.16201 0.22819,0.31638 0.32265,0.47186 0.0913,0.15752 0.162,0.31278 0.21563,0.4501 0.11016,0.27284 0.14247,0.4786 0.14247,0.4786 l -0.0294,0.017 c 0,0 -0.16312,-0.12924 -0.34688,-0.35923 -0.0931,-0.1142 -0.19364,-0.25219 -0.28585,-0.40903 -0.0891,-0.15864 -0.16425,-0.33948 -0.25221,-0.51292 -0.17299,-0.34846 -0.35047,-0.69445 -0.47343,-0.95966 -0.1243,-0.26454 -0.20732,-0.44067 -0.20732,-0.44067 l 0.0294,-0.0173"
     style="fill:#f4711f;fill-opacity:1;fill-rule:nonzero;stroke:none;stroke-width:0.0224376"
     id="path460" /><path
     d="m 123.68993,138.21334 c 0,0 0.14876,-0.12587 0.37224,-0.31434 0.22235,-0.1896 0.52795,-0.43013 0.83041,-0.6747 0.15258,-0.12094 0.29595,-0.254 0.44337,-0.36102 0.1492,-0.10411 0.29819,-0.18735 0.43058,-0.25243 0.26274,-0.1326 0.46512,-0.18174 0.46512,-0.18174 l 0.0193,0.0276 c 0,0 -0.11532,0.17367 -0.32915,0.37561 -0.10614,0.10231 -0.23515,0.21405 -0.38346,0.31929 -0.15079,0.10186 -0.3249,0.19184 -0.49027,0.29393 -0.33274,0.20149 -0.6628,0.40724 -0.91679,0.55196 -0.2531,0.14607 -0.42205,0.24345 -0.42205,0.24345 l -0.0193,-0.0276"
     style="fill:#f4711f;fill-opacity:1;fill-rule:nonzero;stroke:none;stroke-width:0.0224376"
     id="path462" /><path
     d="m 125.24732,140.42524 c 0,0 0.13059,-0.0426 0.32781,-0.0992 0.19655,-0.0608 0.4611,-0.127 0.72473,-0.19812 0.13193,-0.0336 0.26185,-0.0821 0.38683,-0.10636 0.12564,-0.0207 0.24591,-0.0231 0.35024,-0.0175 0.208,0.008 0.35452,0.0604 0.35452,0.0604 l 0.006,0.0332 c 0,0 -0.12139,0.0974 -0.31525,0.17321 -0.0969,0.0393 -0.21113,0.0761 -0.33679,0.0981 -0.12609,0.0179 -0.26453,0.0146 -0.40028,0.0258 -0.27239,0.0191 -0.54389,0.0433 -0.74964,0.0501 -0.20463,0.011 -0.34195,0.0137 -0.34195,0.0137 l -0.006,-0.0332"
     style="fill:#dbdcd9;fill-opacity:1;fill-rule:nonzero;stroke:none;stroke-width:0.0224376"
     id="path464" /><path
     d="m 123.94011,146.46476 c 0,0 0.12385,0.0597 0.30537,0.15504 0.18422,0.092 0.4207,0.22707 0.66056,0.3581 0.1187,0.0671 0.24592,0.12139 0.35317,0.1905 0.10501,0.072 0.19341,0.15324 0.26499,0.22931 0.14472,0.14966 0.2145,0.28899 0.2145,0.28899 l -0.0188,0.0278 c 0,0 -0.15527,-0.0135 -0.34756,-0.0929 -0.0974,-0.0386 -0.20531,-0.0909 -0.31121,-0.16201 -0.10366,-0.074 -0.20104,-0.17231 -0.30717,-0.25803 -0.21001,-0.17456 -0.42295,-0.34486 -0.57597,-0.48218 -0.15572,-0.1335 -0.25669,-0.22662 -0.25669,-0.22662 l 0.0188,-0.0281"
     style="fill:#dbdcd9;fill-opacity:1;fill-rule:nonzero;stroke:none;stroke-width:0.0224376"
     id="path466" /><g
     id="g468"
     transform="matrix(0.02243755,0,0,-0.02243755,16.707439,246.32668)"><g
       id="g470"
       clip-path="url(#clipPath474)"><path
         d="m 3886.07,4658.4 h 553.559 v 555.652 H 3886.07 Z"
         style="fill:#4a9e9e;fill-opacity:1;fill-rule:nonzero;stroke:none"
         id="path476" /></g></g><path
     d="m 102.04913,147.18971 c -0.0242,0 -0.0487,-0.002 -0.0734,-0.006 l -1.82731,-0.31323 c -0.235148,-0.0415 -0.395802,-0.26723 -0.355191,-0.50327 l 0.04872,-0.28025 c -0.479944,-0.20822 -0.932953,-0.48644 -1.341994,-0.83355 l -0.22998,0.16963 c -0.07809,0.057 -0.168509,0.0846 -0.258258,0.0846 -0.133279,0 -0.264542,-0.0611 -0.349356,-0.17659 l -1.09652,-1.49569 c -0.141362,-0.19206 -0.09963,-0.4649 0.09423,-0.60738 l 0.269255,-0.19701 c -0.207102,-0.5459 -0.320633,-1.11424 -0.345088,-1.68259 l -0.383679,-0.066 c -0.2365,-0.0415 -0.39423,-0.26476 -0.3534,-0.50193 l 0.31345,-1.82709 c 0.0366,-0.21091 0.21945,-0.36192 0.427668,-0.36192 0.02468,0 0.04961,0.002 0.07494,0.006 l 0.4961,0.0859 c 0.207993,-0.41106 0.468045,-0.79811 0.781719,-1.15217 l -0.334542,-0.45638 c -0.142031,-0.19341 -0.100747,-0.46603 0.09289,-0.60829 l 1.494341,-1.09584 c 0.07763,-0.0568 0.167383,-0.0841 0.256464,-0.0841 0.134176,0 0.26633,0.0617 0.351818,0.17794 l 0.401183,0.5477 c 0.46401,-0.162 0.94171,-0.25848 1.42097,-0.29057 l 0.12319,-0.71441 c 0.0364,-0.21226 0.21943,-0.36259 0.42698,-0.36259 0.0247,0 0.0498,0.003 0.0749,0.006 l 1.65208,0.28338 0.17479,0.0301 c 0.23626,0.0404 0.39557,0.26543 0.35518,0.50305 l -0.13171,0.75547 c 0.36506,0.17344 0.71262,0.3875 1.03639,0.64284 l 0.61906,-0.45504 c 0.0776,-0.057 0.16783,-0.0844 0.25713,-0.0844 0.13395,0 0.26588,0.0615 0.35048,0.17681 l 1.09652,1.49546 c 0.14158,0.19296 0.0996,0.46401 -0.094,0.60716 l -0.58023,0.42496 c 0.19139,0.45616 0.31682,0.93027 0.3765,1.40818 l 0.66236,0.11287 c 0.20373,0.0354 0.35002,0.20665 0.35989,0.40365 0.001,0.0319 -2.2e-4,0.0644 -0.006,0.0971 l -0.31345,1.82664 c -0.0357,0.21249 -0.21966,0.3617 -0.42766,0.3617 -0.0245,0 -0.0494,-0.002 -0.0743,-0.006 l -0.54815,-0.0938 c -0.173,0.43125 -0.40344,0.84186 -0.68637,1.22195 l 0.29079,0.39647 c 0.14203,0.19364 0.10029,0.46513 -0.0936,0.60761 l -1.49456,1.09607 c -0.0776,0.0567 -0.16784,0.0841 -0.25691,0.0841 -0.13373,0 -0.26544,-0.0615 -0.35026,-0.17747 l -0.22527,-0.30718 c -0.53513,0.24076 -1.09877,0.38705 -1.66419,0.44225 l -0.0563,0.3222 c -0.0366,0.21226 -0.22101,0.36214 -0.42833,0.36214 m -0.0586,-8.97704 c -0.59684,0 -1.19929,0.18331 -1.71782,0.56363 -1.295097,0.95024 -1.576239,2.76969 -0.62556,4.06591 0.56946,0.77634 1.45215,1.18762 2.34719,1.18762 0.59707,0 1.19974,-0.18309 1.71804,-0.56318 1.29577,-0.94978 1.57512,-2.77037 0.62624,-4.06456 -0.57082,-0.77769 -1.45329,-1.18942 -2.34809,-1.18942"
     style="fill:#4a9e9e;fill-opacity:1;fill-rule:nonzero;stroke:none;stroke-width:0.0224376"
     id="path478" /><path
     d="m 121.15516,146.52736 c -0.0954,0 -0.18444,-0.0595 -0.21652,-0.15482 l -0.064,-0.19184 c -0.11129,0.013 -0.22191,0.0193 -0.33185,0.0193 -0.19543,0 -0.38817,-0.0202 -0.5753,-0.0601 l -0.081,0.15393 c -0.0404,0.079 -0.12139,0.12453 -0.20531,0.12453 -0.0354,0 -0.0711,-0.008 -0.10455,-0.0251 l -0.86879,-0.44875 c -0.11173,-0.0579 -0.15818,-0.19723 -0.0985,-0.31143 l 0.0669,-0.13081 c -0.20754,-0.18175 -0.39198,-0.39378 -0.54141,-0.63319 l -0.14293,0.0487 c -0.0247,0.009 -0.0498,0.0128 -0.0745,0.0128 -0.0958,0 -0.18533,-0.0615 -0.21697,-0.15616 l -0.31502,-0.92712 c -0.0406,-0.12027 0.0229,-0.25018 0.14494,-0.2899 l 0.16761,-0.0558 c -0.0186,-0.3083 0.013,-0.61232 0.0924,-0.90356 l -0.18219,-0.0927 c -0.11308,-0.0583 -0.15796,-0.19723 -0.0992,-0.31031 l 0.44696,-0.869 c 0.0417,-0.0781 0.12183,-0.12409 0.20553,-0.12409 0.0359,0 0.0725,0.009 0.10702,0.0265 l 0.23537,0.12049 c 0.16783,-0.17277 0.36282,-0.32736 0.5753,-0.45526 l -0.0958,-0.28361 c -0.0415,-0.11981 0.0256,-0.25152 0.14315,-0.29101 l 0.92824,-0.31503 c 0.0242,-0.008 0.0487,-0.0119 0.0729,-0.0119 0.0954,0 0.18511,0.0597 0.21765,0.15684 l 0.11376,0.33971 c 0.0307,-6.4e-4 0.0615,-0.001 0.092,-0.001 0.22863,0 0.45256,0.0263 0.67133,0.081 l 0.17366,-0.34106 c 0.0401,-0.0796 0.12117,-0.12565 0.20508,-0.12565 0.0359,0 0.072,0.008 0.10613,0.026 l 0.86811,0.44808 c 0.11151,0.0579 0.15662,0.1961 0.0996,0.3112 l -0.18735,0.359 c 0.15751,0.14406 0.29729,0.3074 0.41913,0.486 l 0.38548,-0.13036 c 0.0242,-0.008 0.0487,-0.0121 0.0729,-0.0121 0.0956,0 0.18489,0.0608 0.21764,0.15505 l 0.31435,0.92734 c 0.0408,0.12139 -0.0235,0.24951 -0.14382,0.29102 l -0.36012,0.12138 c 0.024,0.26118 0.0119,0.51853 -0.0326,0.76983 l 0.31323,0.15976 c 0.11466,0.0586 0.15774,0.19768 0.1003,0.31188 l -0.44763,0.86789 c -0.0415,0.0792 -0.12162,0.12542 -0.20486,0.12542 -0.0357,0 -0.0718,-0.009 -0.1059,-0.0265 l -0.25983,-0.13485 c -0.15459,0.19005 -0.33724,0.36058 -0.54074,0.50642 l 0.0846,0.24636 c 0.0413,0.1196 -0.0256,0.25063 -0.14248,0.29012 l -0.92914,0.31502 c -0.0242,0.008 -0.0489,0.0119 -0.0731,0.0119 m -0.6056,-4.71884 c -0.16357,0 -0.33006,0.0263 -0.49362,0.0819 -0.80349,0.27127 -1.23295,1.14342 -0.961,1.94601 0.21741,0.6397 0.81425,1.042 1.45373,1.042 0.16356,0 0.32983,-0.0263 0.4934,-0.0817 0.80282,-0.27284 1.23294,-1.14499 0.96077,-1.94534 -0.21652,-0.63969 -0.81336,-1.04289 -1.45328,-1.04289"
     style="fill:#4a9e9e;fill-opacity:1;fill-rule:nonzero;stroke:none;stroke-width:0.0224376"
     id="path480" /><path
     d="m 111.41524,133.54476 c 0.86587,0.91276 0.82861,2.35662 -0.0853,3.2236 -0.91411,0.86677 -2.35774,0.82908 -3.22405,-0.0839 -0.86766,-0.91456 -0.82907,-2.35751 0.0846,-3.22473 0.91411,-0.86698 2.3564,-0.82974 3.22473,0.085 z m 3.57318,-2.24218 -1.2767,-1.34536 c -0.16379,-0.17277 -0.43955,-0.18084 -0.61412,-0.015 l -0.55689,0.52931 c -0.35362,-0.21248 -0.72519,-0.38099 -1.10909,-0.50687 l 0.0354,-0.76624 c 0.0101,-0.24075 -0.17613,-0.44382 -0.41577,-0.45436 l -1.85177,-0.0806 c -0.24053,-0.0112 -0.44247,0.17569 -0.45301,0.41644 l -0.032,0.72429 c -0.47142,0.0922 -0.93341,0.24815 -1.37318,0.46737 l -0.46693,-0.49295 c -0.16559,-0.17389 -0.44067,-0.18197 -0.61524,-0.0164 l -1.34445,1.27557 c -0.17412,0.16537 -0.18085,0.4409 -0.0155,0.61501 l 0.38951,0.41061 c -0.26656,0.39064 -0.4759,0.80753 -0.6305,1.2417 l -0.50305,-0.0229 c -0.24075,-0.0112 -0.44291,0.17658 -0.45346,0.41599 l -0.081,1.85178 c -0.0106,0.24053 0.17411,0.44224 0.41397,0.45368 l 0.38907,0.0171 c 0.0958,0.56071 0.28002,1.11021 0.55421,1.6256 l -0.24233,0.22931 c -0.17434,0.16581 -0.18129,0.4418 -0.0169,0.61457 l 1.27625,1.34558 c 0.16492,0.17366 0.43955,0.17972 0.61434,0.0146 l 0.20688,-0.19722 c 0.44965,0.2928 0.93385,0.51157 1.436,0.65786 l -0.0128,0.28406 c -0.0103,0.23919 0.17703,0.44292 0.41577,0.45459 l 1.85222,0.0803 c 0.23896,0.0103 0.44246,-0.17613 0.45256,-0.41643 l 0.0157,-0.3267 c 0.55377,-0.1261 1.09451,-0.34239 1.59487,-0.64867 l 0.2623,0.27666 c 0.16491,0.17389 0.43955,0.18084 0.61411,0.0159 l 1.34468,-1.27579 c 0.17434,-0.16559 0.1813,-0.44023 0.0162,-0.61435 l -0.33835,-0.35675 c 0.23267,-0.41286 0.4097,-0.84904 0.52683,-1.29869 l 0.55555,0.0238 c 0.23986,0.0107 0.44359,-0.17501 0.45324,-0.41554 l 0.0805,-1.85155 c 0.0119,-0.23873 -0.1739,-0.44135 -0.41375,-0.45234 l -0.67156,-0.0285 c -0.11959,-0.46647 -0.3038,-0.92128 -0.55106,-1.34962 l 0.5219,-0.49452 c 0.17434,-0.16626 0.18196,-0.44067 0.0173,-0.61434"
     style="fill:#a1c8c0;fill-opacity:1;fill-rule:nonzero;stroke:none;stroke-width:0.0224376"
     id="path482" /><path
     d="m 104.11428,138.72896 c 0.94889,1.2942 0.66954,3.11478 -0.62623,4.06457 -1.29554,0.94977 -3.1159,0.66998 -4.065234,-0.62445 -0.950679,-1.29621 -0.669537,-3.11567 0.625554,-4.0659 1.29555,-0.95001 3.11411,-0.67089 4.06591,0.62578 z m 3.32054,-1.40279 -1.09653,-1.49547 c -0.1409,-0.19206 -0.41352,-0.23492 -0.60761,-0.0924 l -0.61905,0.45503 c -0.32377,-0.25534 -0.67133,-0.46939 -1.03639,-0.64261 l 0.13171,-0.7557 c 0.0404,-0.23761 -0.11892,-0.46266 -0.35519,-0.50305 l -1.82686,-0.31345 c -0.23694,-0.0413 -0.46132,0.11869 -0.50193,0.35608 l -0.12318,0.71442 c -0.47927,0.032 -0.95696,0.12857 -1.420973,0.29056 l -0.401186,-0.5477 c -0.142253,-0.19341 -0.414192,-0.23604 -0.608281,-0.0938 l -1.494341,1.09585 c -0.193632,0.14226 -0.234916,0.41488 -0.09289,0.60829 l 0.334549,0.45638 c -0.313458,0.35406 -0.573732,0.74111 -0.781725,1.15216 l -0.496094,-0.0859 c -0.23762,-0.0415 -0.46177,0.11937 -0.50261,0.35541 l -0.31345,1.82709 c -0.0408,0.23717 0.1169,0.46042 0.35339,0.50193 l 0.38391,0.066 c 0.0242,0.56835 0.13777,1.13669 0.344867,1.6826 l -0.269247,0.197 c -0.19386,0.14247 -0.2356,0.41532 -0.0942,0.60738 l 1.096525,1.49569 c 0.141802,0.19319 0.413518,0.23402 0.607607,0.092 l 0.229981,-0.16963 c 0.40904,0.34711 0.862056,0.62534 1.341994,0.83356 l -0.04866,0.28024 c -0.04064,0.23605 0.120037,0.46177 0.355182,0.50328 l 1.827322,0.31323 c 0.23582,0.0402 0.46108,-0.11914 0.5017,-0.35609 l 0.0563,-0.3222 c 0.56543,-0.0552 1.12906,-0.20149 1.6642,-0.44224 l 0.22527,0.30717 c 0.14158,0.19341 0.41307,0.23514 0.60716,0.0933 l 1.49457,-1.09608 c 0.19386,-0.14248 0.23559,-0.41397 0.0936,-0.6076 l -0.29079,-0.39648 c 0.28294,-0.38009 0.51337,-0.7907 0.68636,-1.22195 l 0.54816,0.0938 c 0.23671,0.0408 0.46198,-0.1178 0.50192,-0.35541 l 0.31345,-1.82664 c 0.042,-0.23514 -0.11712,-0.45952 -0.35384,-0.5008 l -0.66235,-0.11287 c -0.0597,-0.47792 -0.18511,-0.95202 -0.3765,-1.40818 l 0.58023,-0.42496 c 0.19364,-0.14316 0.23559,-0.4142 0.094,-0.60716"
     style="fill:#d7f0ea;fill-opacity:1;fill-rule:nonzero;stroke:none;stroke-width:0.0224376"
     id="path484" /><path
     d="m 121.77847,142.17829 c 0.27217,0.80035 -0.15796,1.67249 -0.96077,1.94533 -0.80282,0.27217 -1.67407,-0.15706 -1.94714,-0.96033 -0.27194,-0.80236 0.15751,-1.67473 0.961,-1.94601 0.8035,-0.27261 1.67497,0.15774 1.94691,0.96101 z m 1.89441,-0.17973 -0.31435,-0.92735 c -0.0408,-0.11824 -0.17076,-0.18353 -0.29057,-0.14292 l -0.38548,0.13036 c -0.12183,-0.1786 -0.26162,-0.34195 -0.41913,-0.486 l 0.18735,-0.35899 c 0.057,-0.11511 0.0119,-0.25333 -0.0996,-0.31099 l -0.8681,-0.44853 c -0.11399,-0.059 -0.254,-0.0135 -0.31121,0.0999 l -0.17367,0.34105 c -0.24794,-0.0621 -0.50282,-0.0875 -0.76333,-0.0796 l -0.11353,-0.33971 c -0.0411,-0.12183 -0.17165,-0.18466 -0.29057,-0.14494 l -0.92846,0.31502 c -0.11757,0.0395 -0.18466,0.1712 -0.14315,0.29102 l 0.0958,0.2836 c -0.21249,0.1279 -0.40747,0.2825 -0.5753,0.45527 l -0.23538,-0.1205 c -0.1151,-0.0599 -0.25287,-0.0141 -0.31255,0.0976 l -0.44696,0.86901 c -0.0588,0.11309 -0.0139,0.25198 0.0992,0.31031 l 0.18219,0.0927 c -0.0794,0.29124 -0.11106,0.59549 -0.0924,0.90356 l -0.16761,0.0561 c -0.12206,0.0395 -0.18578,0.16941 -0.14494,0.28967 l 0.31502,0.92712 c 0.0397,0.11914 0.17098,0.18556 0.29147,0.14338 l 0.14292,-0.0487 c 0.14944,0.2394 0.33387,0.45144 0.54142,0.63341 l -0.0669,0.13058 c -0.0597,0.11421 -0.0132,0.25355 0.0985,0.31144 l 0.86879,0.44875 c 0.11308,0.0574 0.25264,0.0128 0.30985,-0.0994 l 0.081,-0.15392 c 0.29259,0.0624 0.59819,0.0767 0.90715,0.0408 l 0.064,0.19184 c 0.0404,0.11981 0.17031,0.18286 0.28967,0.14293 l 0.92914,-0.31503 c 0.1169,-0.0395 0.18376,-0.17052 0.14248,-0.29011 l -0.0846,-0.24637 c 0.20351,-0.14584 0.38615,-0.31637 0.54075,-0.50641 l 0.25983,0.13485 c 0.11375,0.0601 0.25152,0.0139 0.31075,-0.099 l 0.44763,-0.86788 c 0.0574,-0.11421 0.0144,-0.25332 -0.10029,-0.31188 l -0.31323,-0.15976 c 0.0445,-0.2513 0.0565,-0.50866 0.0326,-0.76983 l 0.36012,-0.12138 c 0.12027,-0.0415 0.18466,-0.16963 0.14383,-0.29102"
     style="fill:#d7f0ea;fill-opacity:1;fill-rule:nonzero;stroke:none;stroke-width:0.0224376"
     id="path486" /><path
     d="m 107.54229,135.26079 c 0,-1.19772 0.97088,-2.16904 2.16882,-2.16904 1.19794,0 2.16881,0.97132 2.16881,2.16904 0,1.19772 -0.97087,2.16903 -2.16881,2.16903 -1.19794,0 -2.16882,-0.97131 -2.16882,-2.16903"
     style="fill:#d7f0ea;fill-opacity:1;fill-rule:nonzero;stroke:none;stroke-width:0.0224376"
     id="path488" /><path
     d="m 108.51451,135.1486 c 0,-0.66101 0.53558,-1.19659 1.1966,-1.19659 0.66101,0 1.19659,0.53558 1.19659,1.19659 0,0.66079 -0.53558,1.19659 -1.19659,1.19659 -0.66102,0 -1.1966,-0.5358 -1.1966,-1.19659"
     style="fill:#53bab7;fill-opacity:1;fill-rule:evenodd;stroke:none;stroke-width:0.0224376"
     id="path490" /><path
     d="m 109.86884,133.04553 c -0.65383,0 -1.41064,0.28652 -2.18923,0.82884 l -7.14233,4.32057 c -0.656513,0.45795 -1.105489,1.10304 -1.252456,1.80892 -0.142927,0.68659 0.0051,1.39091 0.418009,1.98303 0.464907,0.66797 1.244387,1.05098 2.138527,1.05098 0.67245,0 1.33526,-0.21406 1.91706,-0.61928 l 6.46,-5.03499 c 0.73034,-0.5091 1.22374,-1.09921 1.43623,-1.71422 0.21921,-0.63387 0.12789,-1.24551 -0.27082,-1.81834 -0.37224,-0.53447 -0.88202,-0.80551 -1.51499,-0.80551 z m -8.02748,10.44109 c -1.0429,0 -1.956554,-0.45301 -2.506951,-1.24327 -0.483525,-0.69444 -0.657192,-1.52216 -0.488913,-2.33103 0.170303,-0.81853 0.684573,-1.56188 1.447444,-2.09343 l 7.14232,-4.32057 c 0.84187,-0.58719 1.68776,-0.90154 2.43358,-0.90154 0.77747,0 1.4286,0.34509 1.88318,0.99779 0.4786,0.68727 0.59168,1.45553 0.32692,2.22154 -0.24412,0.70522 -0.79541,1.37206 -1.59464,1.92874 l -6.45977,5.03476 c -0.66684,0.46513 -1.41873,0.70701 -2.18317,0.70701"
     style="fill:#4b8988;fill-opacity:1;fill-rule:nonzero;stroke:none;stroke-width:0.0224376"
     id="path492" /><path
     d="m 108.13711,133.79158 -0.024,0.0424 c -0.56318,0.79429 -0.65001,2.06448 0.49026,2.97657 l 10.17678,6.59193 c 0.57306,0.40612 1.15576,0.62691 1.64938,0.62691 0.42206,0 0.7575,-0.15617 0.99624,-0.46402 l 0.0844,-0.10837 c 0.42653,-0.8791 0.0368,-1.86007 -1.04649,-2.62811 l -9.36207,-7.29826 c -0.48981,-0.34734 -1.01777,-0.42138 -1.37273,-0.42138 -0.672,0 -1.29442,0.26723 -1.59172,0.68233 z m 12.29241,10.68655 c -0.59414,0 -1.25156,-0.24367 -1.90113,-0.70453 l -10.18732,-6.59956 c -1.31821,-1.05322 -1.29711,-2.59356 -0.60424,-3.5853 l 0.0231,-0.0406 c 0.38054,-0.5477 1.13489,-0.88763 1.9689,-0.88763 0.60289,0 1.17011,0.17636 1.64063,0.51023 l 9.36185,7.29803 c 1.26031,0.89347 1.71221,2.12507 1.17056,3.20835 l -0.0235,0.0373 -0.0983,0.12632 c -0.32332,0.41689 -0.79047,0.63745 -1.35051,0.63745"
     style="fill:#4b8988;fill-opacity:1;fill-rule:nonzero;stroke:none;stroke-width:0.0224376"
     id="path494" /></svg>
